<svg
    xmlns="http://www.w3.org/2000/svg"
    viewBox="0 0 449 645"
    id="alpaca_logo">
    <g id="title_gamedev">
        <path
            id="path"
            d="M 269.08 472.53 L 269.08 492.23 L 278.98 492.23 L 278.98 472.53 L 269.08 472.53 Z M 259.18 462.68 L 269.08 462.68 L 269.08 472.53 L 259.18 472.53 Z M 209.67 452.83 L 219.57 452.83 L 219.57 462.68 L 209.67 462.68 Z M 199.77 462.68 L 209.67 462.68 L 209.67 472.53 L 199.77 472.53 Z M 209.67 442.98 L 209.67 433.13 L 189.87 433.13 L 189.87 442.98 L 209.67 442.98 Z M 189.87 472.53 L 199.77 472.53 L 199.77 482.38 L 189.87 482.38 Z M 189.87 452.83 L 189.87 442.98 L 179.97 442.98 L 179.97 452.83 L 170.07 452.83 L 170.07 492.23 L 179.97 492.23 L 179.97 462.68 L 189.87 462.68 L 189.87 452.83 Z"
            fill="#404040"
            stroke-width="1"/>
        <path
            id="path_1"
            d="M 278.98 167.32 L 278.98 157.47 L 259.18 157.47 L 259.18 167.32 L 269.08 167.32 L 269.08 177.17 L 259.18 177.17 L 259.18 187.02 L 288.88 187.02 L 288.88 167.32 L 278.98 167.32 Z M 278.98 502.02 L 288.88 502.02 L 288.88 492.23 L 269.08 492.23 L 269.08 502.02 L 278.98 502.02 Z"
            fill="#000000"
            stroke-width="1"/>
        <path
            id="path_2"
            d="M 278.98 442.98 L 269.08 442.98 L 269.08 433.13 L 209.67 433.13 L 209.67 442.98 L 189.87 442.98 L 189.87 462.68 L 179.97 462.68 L 179.97 492.23 L 189.87 492.23 L 189.87 472.53 L 199.77 472.53 L 199.77 462.68 L 209.67 462.68 L 209.67 452.83 L 219.57 452.83 L 219.57 462.68 L 209.67 462.68 L 209.67 472.53 L 199.77 472.53 L 199.77 482.38 L 259.18 482.38 L 259.18 492.23 L 269.08 492.23 L 269.08 472.53 L 259.18 472.53 L 259.18 462.68 L 269.08 462.68 L 269.08 472.53 L 288.88 472.53 L 288.88 452.83 L 278.98 452.83 L 278.98 442.98 Z M 229.47 236.27 L 239.37 236.27 L 239.37 246.12 L 229.47 246.12 Z M 219.57 383.94 L 219.57 403.59 L 229.47 403.59 L 229.47 374.1 L 219.57 374.1 L 219.57 383.94 Z M 229.47 226.42 L 229.47 216.57 L 239.37 216.57 L 239.37 206.72 L 209.67 206.72 L 209.67 216.57 L 219.57 216.57 L 219.57 236.26 L 229.47 236.26 L 229.47 226.42 Z M 209.67 236.27 L 219.57 236.27 L 219.57 246.12 L 209.67 246.12 Z M 179.97 433.13 L 189.87 433.13 L 189.87 442.98 L 179.97 442.98 Z M 170.07 442.98 L 179.97 442.98 L 179.97 452.83 L 170.07 452.83 Z M 179.97 187.02 L 189.87 187.02 L 189.87 167.32 L 179.97 167.32 L 179.97 157.47 L 160.17 157.47 L 160.17 167.32 L 170.07 167.32 L 170.07 177.17 L 160.17 177.17 L 160.17 187.02 L 179.97 187.02 Z M 160.17 492.23 L 160.17 502.02 L 179.97 502.02 L 179.97 492.23 L 160.17 492.23 Z M 160.17 462.68 L 160.17 472.53 L 170.07 472.53 L 170.07 452.83 L 160.17 452.83 L 160.17 462.68 Z"
            fill="#000000"
            stroke-width="1"/>
        <path
            id="path_3"
            d="M 288.88 206.72 L 298.78 206.72 L 298.78 216.57 L 288.88 216.57 Z M 269.08 206.72 L 278.98 206.72 L 278.98 216.57 L 269.08 216.57 Z M 170.07 206.72 L 179.97 206.72 L 179.97 216.57 L 170.07 216.57 Z M 150.32 206.72 L 160.17 206.72 L 160.17 216.57 L 150.32 216.57 Z"
            fill="#f3adcd"
            stroke-width="1"/>
        <path
            id="path_4"
            d="M 298.78 324.85 L 140.42 324.85 L 140.42 344.55 L 219.57 344.55 L 219.57 334.7 L 229.47 334.7 L 229.47 344.55 L 308.68 344.55 L 308.68 324.85 L 298.78 324.85 Z"
            fill="#ae1730"
            stroke-width="1"/>
        <path
            id="path_5"
            d="M 318.58 452.83 L 318.58 442.98 L 308.68 442.98 L 308.68 462.68 L 318.58 462.68 L 318.58 482.38 L 288.88 482.38 L 288.88 472.53 L 278.98 472.53 L 278.98 492.23 L 288.88 492.23 L 288.88 502.02 L 308.68 502.02 L 308.68 492.23 L 328.49 492.23 L 328.49 452.83 L 318.58 452.83 Z"
            fill="#481d17"
            stroke-width="1"/>
        <path
            id="path_6"
            d="M 298.78 462.68 L 308.68 462.68 L 308.68 472.53 L 298.78 472.53 Z M 150.32 442.98 L 150.32 482.38 L 130.51 482.38 L 130.51 472.53 L 120.61 472.53 L 120.61 492.23 L 130.51 492.23 L 130.51 502.02 L 150.32 502.02 L 150.32 492.23 L 170.07 492.23 L 170.07 472.53 L 160.17 472.53 L 160.17 452.83 L 170.07 452.83 L 170.07 442.98 L 150.32 442.98 Z"
            fill="#481d17"
            stroke-width="1"/>
        <path
            id="path_7"
            d="M 130.52 462.68 L 140.42 462.68 L 140.42 472.53 L 130.52 472.53 Z"
            fill="#481d17"
            stroke-width="1"/>
        <path
            id="path_8"
            d="M 308.68 462.68 L 308.68 472.53 L 298.78 472.53 L 298.78 462.68 L 308.68 462.68 L 308.68 442.98 L 278.98 442.98 L 278.98 452.83 L 288.88 452.83 L 288.88 482.38 L 318.58 482.38 L 318.58 462.68 L 308.68 462.68 Z M 130.51 442.98 L 130.51 452.83 L 120.61 452.83 L 120.61 472.53 L 130.51 472.53 L 130.51 462.68 L 140.42 462.68 L 140.42 472.53 L 130.51 472.53 L 130.51 482.38 L 150.32 482.38 L 150.32 442.98 L 130.51 442.98 Z"
            fill="#6c2e2b"
            stroke-width="1"/>
        <path
            id="path_9"
            d="M 368.09 462.68 L 377.99 462.68 L 377.99 472.53 L 368.09 472.53 Z M 358.19 482.38 L 358.19 492.23 L 368.09 492.23 L 368.09 472.53 L 358.19 472.53 L 358.19 482.38 Z M 358.19 442.98 L 368.09 442.98 L 368.09 452.83 L 358.19 452.83 Z M 338.39 492.23 L 338.39 502.02 L 358.19 502.02 L 358.19 492.23 L 338.39 492.23 Z M 338.39 403.59 L 348.29 403.59 L 348.29 413.44 L 338.39 413.44 Z M 338.39 383.94 L 348.29 383.94 L 348.29 393.74 L 338.39 393.74 Z M 348.29 216.57 L 348.29 196.87 L 338.39 196.87 L 338.39 226.42 L 348.29 226.42 L 348.29 216.57 Z M 348.29 68.89 L 348.29 59.04 L 338.39 59.04 L 338.39 78.74 L 348.29 78.74 L 348.29 68.89 Z M 328.49 511.87 L 328.49 521.72 L 338.39 521.72 L 338.39 502.02 L 328.49 502.02 L 328.49 511.87 Z M 328.49 433.13 L 328.49 442.98 L 348.29 442.98 L 348.29 433.13 L 338.39 433.13 L 338.39 423.29 L 328.49 423.29 L 328.49 433.13 Z M 328.48 226.42 L 338.38 226.42 L 338.38 236.27 L 328.48 236.27 Z M 338.39 177.17 L 328.49 177.17 L 328.49 196.87 L 338.39 196.87 L 338.39 177.17 Z M 328.48 137.83 L 338.38 137.83 L 338.38 147.68 L 328.48 147.68 Z M 328.48 118.13 L 338.38 118.13 L 338.38 127.98 L 328.48 127.98 Z M 328.48 78.74 L 338.38 78.74 L 338.38 88.59 L 328.48 88.59 Z M 318.58 374.09 L 328.48 374.09 L 328.48 383.94 L 318.58 383.94 Z M 328.49 275.61 L 328.49 265.81 L 318.58 265.81 L 318.58 285.46 L 328.49 285.46 L 328.49 275.61 Z M 318.58 206.72 L 328.48 206.72 L 328.48 216.57 L 318.58 216.57 Z M 318.58 167.32 L 328.48 167.32 L 328.48 177.17 L 318.58 177.17 Z M 318.58 147.68 L 328.48 147.68 L 328.48 157.48 L 318.58 157.48 Z M 318.58 108.28 L 328.48 108.28 L 328.48 118.13 L 318.58 118.13 Z M 308.68 423.29 L 308.68 433.13 L 318.58 433.13 L 318.58 413.44 L 308.68 413.44 L 308.68 423.29 Z M 308.68 393.74 L 318.58 393.74 L 318.58 403.59 L 308.68 403.59 Z M 308.68 354.4 L 318.58 354.4 L 318.58 364.25 L 308.68 364.25 Z M 308.68 285.46 L 318.58 285.46 L 318.58 295.31 L 308.68 295.31 Z M 308.68 255.96 L 318.58 255.96 L 318.58 265.81 L 308.68 265.81 Z M 308.68 236.27 L 318.58 236.27 L 318.58 246.12 L 308.68 246.12 Z M 308.68 216.57 L 318.58 216.57 L 318.58 226.42 L 308.68 226.42 Z M 308.68 177.17 L 318.58 177.17 L 318.58 187.02 L 308.68 187.02 Z M 308.68 118.13 L 318.58 118.13 L 318.58 127.98 L 308.68 127.98 Z M 298.78 521.72 L 298.78 511.87 L 288.88 511.87 L 288.88 531.57 L 318.58 531.57 L 318.58 521.72 L 298.78 521.72 Z M 298.78 433.13 L 308.68 433.13 L 308.68 442.98 L 298.78 442.98 Z M 308.68 324.85 L 318.58 324.85 L 318.58 315 L 298.78 315 L 298.78 324.85 L 308.68 324.85 Z M 298.78 295.3 L 308.68 295.3 L 308.68 305.15 L 298.78 305.15 Z M 298.78 265.81 L 308.68 265.81 L 308.68 275.61 L 298.78 275.61 Z M 298.78 147.68 L 308.68 147.68 L 308.68 157.48 L 298.78 157.48 Z M 298.78 127.98 L 308.68 127.98 L 308.68 137.83 L 298.78 137.83 Z M 298.78 78.74 L 308.68 78.74 L 308.68 88.59 L 298.78 88.59 Z M 288.88 344.55 L 298.78 344.55 L 298.78 354.4 L 288.88 354.4 Z M 288.88 305.15 L 298.78 305.15 L 298.78 315 L 288.88 315 Z M 288.88 137.83 L 298.78 137.83 L 298.78 147.68 L 288.88 147.68 Z M 288.88 98.43 L 298.78 98.43 L 298.78 108.28 L 288.88 108.28 Z M 288.88 68.89 L 298.78 68.89 L 298.78 78.74 L 288.88 78.74 Z M 278.98 502.02 L 288.88 502.02 L 288.88 511.87 L 278.98 511.87 Z M 278.98 374.09 L 288.88 374.09 L 288.88 383.94 L 278.98 383.94 Z M 278.98 295.3 L 288.88 295.3 L 288.88 305.15 L 278.98 305.15 Z M 278.98 127.98 L 288.88 127.98 L 288.88 137.83 L 278.98 137.83 Z M 278.98 108.28 L 288.88 108.28 L 288.88 118.13 L 278.98 118.13 Z M 288.88 88.59 L 288.88 78.74 L 269.08 78.74 L 269.08 88.59 L 288.88 88.59 Z M 269.08 344.55 L 278.98 344.55 L 278.98 354.4 L 269.08 354.4 Z M 269.08 315 L 269.08 324.85 L 288.88 324.85 L 288.88 315 L 269.08 315 Z"
            fill="#faca96"
            stroke-width="1"/>
        <path
            id="path_10"
            d="M 278.98 157.47 L 278.98 167.32 L 298.78 167.32 L 298.78 157.47 L 288.88 157.47 L 288.88 147.68 L 269.08 147.68 L 269.08 157.47 L 278.98 157.47 Z M 269.08 98.43 L 278.98 98.43 L 278.98 108.28 L 269.08 108.28 Z M 259.18 492.23 L 269.08 492.23 L 269.08 502.03 L 259.18 502.03 Z M 259.18 305.15 L 269.08 305.15 L 269.08 315 L 259.18 315 Z M 259.18 285.46 L 269.08 285.46 L 269.08 295.31 L 259.18 295.31 Z M 249.28 482.38 L 189.87 482.38 L 189.87 492.23 L 179.97 492.23 L 179.97 502.02 L 199.77 502.02 L 199.77 492.23 L 259.18 492.23 L 259.18 482.38 L 249.28 482.38 Z M 249.28 295.3 L 259.18 295.3 L 259.18 305.15 L 249.28 305.15 Z M 249.28 78.74 L 259.18 78.74 L 259.18 88.59 L 249.28 88.59 Z M 239.37 315 L 239.37 324.85 L 259.18 324.85 L 259.18 315 L 239.37 315 Z M 249.28 236.26 L 249.28 206.72 L 239.37 206.72 L 239.37 246.11 L 249.28 246.11 L 249.28 236.26 Z M 249.28 147.68 L 269.08 147.68 L 269.08 137.83 L 239.37 137.83 L 239.37 147.68 L 249.28 147.68 Z M 239.37 68.89 L 249.27 68.89 L 249.27 78.74 L 239.37 78.74 Z M 239.37 255.96 L 239.37 246.11 L 219.57 246.11 L 219.57 255.96 L 239.37 255.96 Z M 229.47 127.98 L 239.37 127.98 L 239.37 137.83 L 229.47 137.83 Z M 229.47 59.04 L 239.37 59.04 L 239.37 68.89 L 229.47 68.89 Z M 219.57 118.13 L 229.47 118.13 L 229.47 127.98 L 219.57 127.98 Z M 209.67 315 L 199.77 315 L 199.77 324.85 L 229.47 324.85 L 229.47 315 L 209.67 315 Z M 209.67 127.98 L 219.57 127.98 L 219.57 137.83 L 209.67 137.83 Z M 199.77 147.68 L 209.67 147.68 L 209.67 137.83 L 179.97 137.83 L 179.97 147.68 L 199.77 147.68 Z M 189.87 324.85 L 189.87 315 L 170.07 315 L 170.07 324.85 L 189.87 324.85 Z M 179.97 88.59 L 189.87 88.59 L 189.87 98.44 L 179.97 98.44 Z M 170.07 502.02 L 179.97 502.02 L 179.97 511.87 L 170.07 511.87 Z M 170.07 344.55 L 179.97 344.55 L 179.97 354.4 L 170.07 354.4 Z M 179.97 157.47 L 179.97 147.68 L 160.17 147.68 L 160.17 157.47 L 179.97 157.47 Z M 160.17 511.87 L 170.07 511.87 L 170.07 521.72 L 160.17 521.72 Z M 160.17 433.13 L 170.07 433.13 L 170.07 442.98 L 160.17 442.98 Z M 160.17 305.15 L 170.07 305.15 L 170.07 315 L 160.17 315 Z M 160.17 285.46 L 170.07 285.46 L 170.07 295.31 L 160.17 295.31 Z M 160.17 88.59 L 170.07 88.59 L 170.07 98.44 L 160.17 98.44 Z M 150.32 423.29 L 160.17 423.29 L 160.17 433.14 L 150.32 433.14 Z M 150.32 344.55 L 160.17 344.55 L 160.17 354.4 L 150.32 354.4 Z M 140.42 521.72 L 140.42 531.57 L 160.17 531.57 L 160.17 521.72 L 140.42 521.72 Z M 140.42 413.44 L 150.32 413.44 L 150.32 423.29 L 140.42 423.29 Z M 140.42 305.15 L 140.42 315 L 150.32 315 L 150.32 295.31 L 140.42 295.31 L 140.42 305.15 Z M 150.32 167.32 L 160.17 167.32 L 160.17 157.47 L 140.42 157.47 L 140.42 167.32 L 150.32 167.32 Z M 140.42 98.43 L 150.32 98.43 L 150.32 108.28 L 140.42 108.28 Z M 130.52 275.61 L 140.42 275.61 L 140.42 285.46 L 130.52 285.46 Z M 130.52 236.27 L 140.42 236.27 L 140.42 246.12 L 130.52 246.12 Z"
            fill="#faca96"
            stroke-width="1"/>
        <path
            id="path_11"
            d="M 130.52 147.68 L 140.42 147.68 L 140.42 157.48 L 130.52 157.48 Z M 120.61 265.81 L 130.51 265.81 L 130.51 275.61 L 120.61 275.61 Z M 120.61 137.83 L 130.51 137.83 L 130.51 147.68 L 120.61 147.68 Z M 110.71 511.87 L 120.61 511.87 L 120.61 521.72 L 110.71 521.72 Z M 90.91 492.23 L 100.81 492.23 L 100.81 502.03 L 90.91 502.03 Z M 81.01 482.38 L 90.91 482.38 L 90.91 492.23 L 81.01 492.23 Z M 71.11 472.53 L 81.01 472.53 L 81.01 482.38 L 71.11 482.38 Z"
            fill="#faca96"
            stroke-width="1"/>
        <path
            id="path_12"
            d="M 368.09 433.13 L 368.09 423.29 L 358.19 423.29 L 358.19 433.13 L 348.29 433.13 L 348.29 442.98 L 377.99 442.98 L 377.99 433.13 L 368.09 433.13 Z M 358.19 452.83 L 358.19 462.68 L 377.99 462.68 L 377.99 452.83 L 358.19 452.83 Z M 348.29 482.38 L 358.19 482.38 L 358.19 492.23 L 348.29 492.23 Z M 348.29 413.44 L 358.19 413.44 L 358.19 423.29 L 348.29 423.29 Z M 338.39 502.02 L 348.29 502.02 L 348.29 511.87 L 338.39 511.87 Z M 338.39 462.68 L 338.39 472.53 L 358.19 472.53 L 358.19 462.68 L 338.39 462.68 Z M 338.39 423.29 L 348.29 423.29 L 348.29 433.14 L 338.39 433.14 Z M 348.29 403.59 L 348.29 393.74 L 328.49 393.74 L 328.49 403.59 L 348.29 403.59 Z M 348.29 49.19 L 348.29 39.34 L 338.39 39.34 L 338.39 59.04 L 348.29 59.04 L 348.29 49.19 Z M 328.48 482.38 L 338.38 482.38 L 338.38 492.23 L 328.48 492.23 Z M 328.48 452.83 L 338.38 452.83 L 338.38 462.68 L 328.48 462.68 Z M 328.48 413.44 L 338.38 413.44 L 338.38 423.29 L 328.48 423.29 Z M 328.48 374.09 L 338.38 374.09 L 338.38 383.94 L 328.48 383.94 Z M 328.48 108.28 L 338.38 108.28 L 338.38 118.13 L 328.48 118.13 Z M 328.48 68.89 L 338.38 68.89 L 338.38 78.74 L 328.48 78.74 Z M 318.58 442.98 L 328.48 442.98 L 328.48 452.83 L 318.58 452.83 Z M 318.58 403.59 L 328.48 403.59 L 328.48 413.44 L 318.58 413.44 Z M 318.58 383.94 L 328.48 383.94 L 328.48 393.74 L 318.58 393.74 Z"
            fill="#ffe7b6"
            stroke-width="1"/>
        <path
            id="path_13"
            d="M 328.49 364.25 L 328.49 354.4 L 318.58 354.4 L 318.58 374.1 L 328.49 374.1 L 328.49 364.25 Z M 318.58 285.46 L 328.48 285.46 L 328.48 295.31 L 318.58 295.31 Z M 328.49 236.26 L 328.49 226.42 L 338.39 226.42 L 338.39 196.87 L 328.49 196.87 L 328.49 216.57 L 318.58 216.57 L 318.58 246.11 L 328.49 246.11 L 328.49 236.26 Z M 328.49 177.17 L 318.58 177.17 L 318.58 196.87 L 328.49 196.87 L 328.49 177.17 Z M 328.49 167.32 L 328.49 157.47 L 308.68 157.47 L 308.68 167.32 L 328.49 167.32 Z M 318.58 127.98 L 308.68 127.98 L 308.68 137.83 L 318.58 137.83 L 318.58 147.68 L 328.49 147.68 L 328.49 137.83 L 338.39 137.83 L 338.39 127.98 L 328.49 127.98 L 328.49 118.13 L 318.58 118.13 L 318.58 127.98 Z M 318.58 98.43 L 328.48 98.43 L 328.48 108.28 L 318.58 108.28 Z M 318.58 78.74 L 328.48 78.74 L 328.48 88.59 L 318.58 88.59 Z M 308.68 511.87 L 308.68 502.02 L 288.88 502.02 L 288.88 511.87 L 298.78 511.87 L 298.78 521.72 L 318.58 521.72 L 318.58 531.57 L 328.49 531.57 L 328.49 511.87 L 308.68 511.87 Z"
            fill="#ffe7b6"
            stroke-width="1"/>
        <path
            id="path_14"
            d="M 308.68 492.23 L 318.58 492.23 L 318.58 502.03 L 308.68 502.03 Z M 308.68 374.09 L 318.58 374.09 L 318.58 383.94 L 308.68 383.94 Z M 308.68 344.55 L 298.78 344.55 L 298.78 364.25 L 308.68 364.25 L 308.68 354.4 L 318.58 354.4 L 318.58 344.55 L 308.68 344.55 Z M 308.68 295.3 L 318.58 295.3 L 318.58 305.15 L 308.68 305.15 Z M 308.68 285.46 L 318.58 285.46 L 318.58 265.81 L 308.68 265.81 L 308.68 285.46 Z M 308.68 246.11 L 318.58 246.11 L 318.58 255.96 L 308.68 255.96 Z M 298.78 383.94 L 308.68 383.94 L 308.68 393.74 L 298.78 393.74 Z M 298.78 305.15 L 308.68 305.15 L 308.68 315 L 298.78 315 Z M 308.68 295.31 L 308.68 285.46 L 288.88 285.46 L 288.88 305.15 L 298.78 305.15 L 298.78 295.31 L 308.68 295.31 Z M 298.78 255.96 L 308.68 255.96 L 308.68 265.81 L 298.78 265.81 Z M 298.78 226.42 L 308.68 226.42 L 308.68 236.27 L 298.78 236.27 Z M 308.68 98.44 L 318.58 98.44 L 318.58 88.59 L 298.78 88.59 L 298.78 98.44 L 308.68 98.44 Z M 288.88 315 L 298.78 315 L 298.78 324.85 L 288.88 324.85 Z M 288.88 265.81 L 298.78 265.81 L 298.78 275.61 L 288.88 275.61 Z M 298.78 236.26 L 288.88 236.26 L 288.88 246.11 L 269.08 246.11 L 269.08 265.81 L 278.98 265.81 L 278.98 255.96 L 298.78 255.96 L 298.78 236.26 Z M 298.78 127.98 L 298.78 118.13 L 278.98 118.13 L 278.98 127.98 L 298.78 127.98 Z M 288.88 78.74 L 298.78 78.74 L 298.78 88.59 L 288.88 88.59 Z M 288.88 354.4 L 288.88 344.55 L 278.98 344.55 L 278.98 374.1 L 298.78 374.1 L 298.78 364.25 L 288.88 364.25 L 288.88 354.4 Z M 278.98 275.61 L 288.88 275.61 L 288.88 285.46 L 278.98 285.46 Z M 278.98 502.02 L 259.18 502.02 L 259.18 492.23 L 249.28 492.23 L 249.28 502.02 L 239.37 502.02 L 239.37 492.23 L 199.77 492.23 L 199.77 502.02 L 209.67 502.02 L 209.67 511.87 L 219.57 511.87 L 219.57 502.02 L 229.47 502.02 L 229.47 511.87 L 219.57 511.87 L 219.57 521.72 L 239.37 521.72 L 239.37 511.87 L 249.28 511.87 L 249.28 521.72 L 278.98 521.72 L 278.98 531.57 L 288.88 531.57 L 288.88 511.87 L 278.98 511.87 L 278.98 502.02 Z M 269.08 285.46 L 278.98 285.46 L 278.98 295.31 L 269.08 295.31 Z M 269.08 127.98 L 278.98 127.98 L 278.98 137.83 L 269.08 137.83 Z M 278.98 98.44 L 278.98 88.59 L 269.08 88.59 L 269.08 78.74 L 259.18 78.74 L 259.18 98.44 L 278.98 98.44 Z M 259.18 423.29 L 269.08 423.29 L 269.08 433.14 L 259.18 433.14 Z M 259.18 364.25 L 269.08 364.25 L 269.08 374.1 L 259.18 374.1 Z M 269.08 344.55 L 249.28 344.55 L 249.28 354.4 L 269.08 354.4 L 269.08 344.55 Z M 259.18 315 L 269.08 315 L 269.08 324.85 L 259.18 324.85 Z M 259.18 236.27 L 269.08 236.27 L 269.08 246.12 L 259.18 246.12 Z M 259.18 118.13 L 269.08 118.13 L 269.08 127.98 L 259.18 127.98 Z M 249.28 305.15 L 259.18 305.15 L 259.18 315 L 249.28 315 Z M 249.28 265.81 L 249.28 275.61 L 269.08 275.61 L 269.08 265.81 L 249.28 265.81 Z M 259.18 98.44 L 249.28 98.44 L 249.28 118.13 L 259.18 118.13 L 259.18 98.44 Z M 239.37 275.61 L 249.27 275.61 L 249.27 285.46 L 239.37 285.46 Z M 239.37 255.96 L 249.27 255.96 L 249.27 265.81 L 239.37 265.81 Z M 249.28 137.83 L 259.18 137.83 L 259.18 127.98 L 239.37 127.98 L 239.37 137.83 L 249.28 137.83 Z M 229.47 423.29 L 239.37 423.29 L 239.37 433.14 L 229.47 433.14 Z M 229.47 315 L 239.37 315 L 239.37 324.85 L 229.47 324.85 Z M 229.47 118.13 L 239.37 118.13 L 239.37 127.98 L 229.47 127.98 Z M 229.47 88.59 L 239.37 88.59 L 239.37 98.44 L 229.47 98.44 Z M 219.57 413.44 L 229.47 413.44 L 229.47 423.29 L 219.57 423.29 Z M 219.57 315 L 229.47 315 L 229.47 295.31 L 219.57 295.31 L 219.57 315 Z M 229.47 206.72 L 239.37 206.72 L 239.37 196.87 L 209.67 196.87 L 209.67 206.72 L 229.47 206.72 Z M 229.47 108.28 L 229.47 98.44 L 219.57 98.44 L 219.57 118.13 L 229.47 118.13 L 229.47 108.28 Z M 219.57 68.89 L 229.47 68.89 L 229.47 78.74 L 219.57 78.74 Z M 209.67 285.46 L 219.57 285.46 L 219.57 295.31 L 209.67 295.31 Z M 209.67 265.81 L 219.57 265.81 L 219.57 275.61 L 209.67 275.61 Z M 209.67 246.11 L 219.57 246.11 L 219.57 255.96 L 209.67 255.96 Z M 209.67 118.13 L 219.57 118.13 L 219.57 127.98 L 209.67 127.98 Z M 209.67 78.74 L 219.57 78.74 L 219.57 88.59 L 209.67 88.59 Z M 199.77 255.96 L 209.67 255.96 L 209.67 265.81 L 199.77 265.81 Z M 209.67 226.42 L 209.67 206.72 L 199.77 206.72 L 199.77 246.11 L 209.67 246.11 L 209.67 226.42 Z M 199.77 68.89 L 209.67 68.89 L 209.67 78.74 L 199.77 78.74 Z M 209.67 49.19 L 209.67 39.34 L 199.77 39.34 L 199.77 59.04 L 209.67 59.04 L 209.67 49.19 Z"
            fill="#ffe7b6"
            stroke-width="1"/>
        <path
            id="path_15"
            d="M 199.77 502.02 L 179.97 502.02 L 179.97 511.87 L 189.87 511.87 L 189.87 521.72 L 209.67 521.72 L 209.67 511.87 L 199.77 511.87 L 199.77 502.02 Z M 189.87 403.59 L 199.77 403.59 L 199.77 413.44 L 189.87 413.44 Z M 199.77 344.55 L 179.97 344.55 L 179.97 354.4 L 199.77 354.4 L 199.77 344.55 Z M 189.87 315 L 199.77 315 L 199.77 324.85 L 189.87 324.85 Z M 199.77 305.15 L 199.77 315 L 209.67 315 L 209.67 295.31 L 189.87 295.31 L 189.87 305.15 L 199.77 305.15 Z M 189.87 246.11 L 199.77 246.11 L 199.77 255.96 L 189.87 255.96 Z M 189.87 137.83 L 209.67 137.83 L 209.67 127.98 L 199.77 127.98 L 199.77 118.13 L 189.87 118.13 L 189.87 108.28 L 179.97 108.28 L 179.97 98.44 L 170.07 98.44 L 170.07 118.13 L 179.97 118.13 L 179.97 127.98 L 189.87 127.98 L 189.87 137.83 Z M 189.87 78.74 L 199.77 78.74 L 199.77 88.59 L 189.87 88.59 Z M 199.77 68.89 L 199.77 59.04 L 179.97 59.04 L 179.97 68.89 L 199.77 68.89 Z M 179.97 423.29 L 179.97 433.13 L 189.87 433.13 L 189.87 413.44 L 179.97 413.44 L 179.97 423.29 Z M 179.97 364.25 L 189.87 364.25 L 189.87 374.1 L 179.97 374.1 Z M 179.97 285.46 L 189.87 285.46 L 189.87 295.31 L 179.97 295.31 Z M 179.97 265.81 L 179.97 275.61 L 189.87 275.61 L 189.87 255.96 L 179.97 255.96 L 179.97 265.81 Z M 170.07 511.87 L 179.97 511.87 L 179.97 521.72 L 170.07 521.72 Z M 170.07 374.09 L 179.97 374.09 L 179.97 383.94 L 170.07 383.94 Z M 170.07 295.3 L 179.97 295.3 L 179.97 305.15 L 170.07 305.15 Z M 170.07 275.61 L 179.97 275.61 L 179.97 285.46 L 170.07 285.46 Z M 170.07 236.27 L 179.97 236.27 L 179.97 246.12 L 170.07 246.12 Z"
            fill="#ffe7b6"
            stroke-width="1"/>
        <path
            id="path_16"
            d="M 170.07 127.98 L 179.97 127.98 L 179.97 137.83 L 170.07 137.83 Z M 160.17 521.72 L 170.07 521.72 L 170.07 531.57 L 160.17 531.57 Z M 170.07 511.87 L 170.07 502.02 L 150.32 502.02 L 150.32 511.87 L 120.61 511.87 L 120.61 521.72 L 130.51 521.72 L 130.51 531.57 L 140.42 531.57 L 140.42 521.72 L 160.17 521.72 L 160.17 511.87 L 170.07 511.87 Z M 170.07 364.25 L 170.07 344.55 L 160.17 344.55 L 160.17 374.1 L 170.07 374.1 L 170.07 364.25 Z M 160.17 246.11 L 170.07 246.11 L 170.07 255.96 L 160.17 255.96 Z M 150.32 433.13 L 160.17 433.13 L 160.17 442.98 L 150.32 442.98 Z M 150.32 374.09 L 160.17 374.09 L 160.17 383.94 L 150.32 383.94 Z M 150.32 285.46 L 160.17 285.46 L 160.17 295.31 L 150.32 295.31 Z M 150.32 255.96 L 160.17 255.96 L 160.17 265.81 L 150.32 265.81 Z M 160.17 147.68 L 170.07 147.68 L 170.07 137.83 L 150.32 137.83 L 150.32 147.68 L 160.17 147.68 Z M 150.32 108.28 L 160.17 108.28 L 160.17 118.13 L 150.32 118.13 Z M 150.32 68.89 L 160.17 68.89 L 160.17 78.74 L 150.32 78.74 Z M 140.42 393.74 L 150.32 393.74 L 150.32 403.59 L 140.42 403.59 Z M 150.32 364.25 L 150.32 344.55 L 130.51 344.55 L 130.51 354.4 L 140.42 354.4 L 140.42 374.1 L 150.32 374.1 L 150.32 364.25 Z M 140.42 275.61 L 140.42 285.46 L 150.32 285.46 L 150.32 265.81 L 140.42 265.81 L 140.42 275.61 Z M 140.42 147.68 L 150.32 147.68 L 150.32 157.48 L 140.42 157.48 Z M 140.42 127.98 L 150.32 127.98 L 150.32 137.83 L 140.42 137.83 Z M 130.52 413.44 L 140.42 413.44 L 140.42 423.29 L 130.52 423.29 Z M 140.42 383.94 L 140.42 374.1 L 130.51 374.1 L 130.51 393.74 L 140.42 393.74 L 140.42 383.94 Z M 130.51 315 L 130.51 324.85 L 150.32 324.85 L 150.32 315 L 130.51 315 Z M 130.51 265.81 L 140.42 265.81 L 140.42 255.96 L 150.32 255.96 L 150.32 246.11 L 130.51 246.11 L 130.51 265.81 Z M 130.52 216.57 L 140.42 216.57 L 140.42 226.42 L 130.52 226.42 Z M 130.51 196.87 L 140.42 196.87 L 140.42 177.17 L 130.51 177.17 L 130.51 196.87 Z M 130.52 118.13 L 140.42 118.13 L 140.42 127.98 L 130.52 127.98 Z M 130.52 88.59 L 140.42 88.59 L 140.42 98.44 L 130.52 98.44 Z M 130.52 68.89 L 140.42 68.89 L 140.42 78.74 L 130.52 78.74 Z M 120.61 433.13 L 130.51 433.13 L 130.51 442.98 L 120.61 442.98 Z M 120.61 364.25 L 130.51 364.25 L 130.51 374.1 L 120.61 374.1 Z M 130.51 275.61 L 120.61 275.61 L 120.61 295.31 L 130.51 295.31 L 130.51 305.15 L 140.42 305.15 L 140.42 285.46 L 130.51 285.46 L 130.51 275.61 Z M 120.61 206.72 L 120.61 216.57 L 130.51 216.57 L 130.51 196.87 L 120.61 196.87 L 120.61 206.72 Z M 120.61 167.32 L 130.51 167.32 L 130.51 177.17 L 120.61 177.17 Z M 120.61 147.68 L 130.51 147.68 L 130.51 157.48 L 120.61 157.48 Z M 120.61 98.43 L 130.51 98.43 L 130.51 108.28 L 120.61 108.28 Z M 120.61 59.04 L 130.51 59.04 L 130.51 68.89 L 120.61 68.89 Z M 120.61 492.23 L 100.81 492.23 L 100.81 502.02 L 120.61 502.02 L 120.61 492.23 Z M 120.61 403.59 L 120.61 413.44 L 130.51 413.44 L 130.51 393.74 L 110.71 393.74 L 110.71 403.59 L 120.61 403.59 Z M 110.71 226.42 L 110.71 236.26 L 120.61 236.26 L 120.61 246.11 L 130.51 246.11 L 130.51 226.42 L 110.71 226.42 Z M 120.61 187.02 L 120.61 177.17 L 110.71 177.17 L 110.71 196.87 L 120.61 196.87 L 120.61 187.02 Z M 120.61 127.98 L 110.71 127.98 L 110.71 147.68 L 120.61 147.68 L 120.61 127.98 Z M 110.71 78.74 L 110.71 88.59 L 130.51 88.59 L 130.51 78.74 L 110.71 78.74 Z M 110.71 49.19 L 120.61 49.19 L 120.61 59.04 L 110.71 59.04 Z M 100.81 462.68 L 110.71 462.68 L 110.71 472.53 L 100.81 472.53 Z"
            fill="#ffe7b6"
            stroke-width="1"/>
        <path
            id="path_17"
            d="M 110.71 452.83 L 120.61 452.83 L 120.61 442.98 L 100.81 442.98 L 100.81 452.83 L 110.71 452.83 Z M 100.81 413.44 L 110.71 413.44 L 110.71 423.29 L 100.81 423.29 Z M 100.81 383.94 L 110.71 383.94 L 110.71 393.74 L 100.81 393.74 Z M 110.71 216.57 L 110.71 196.87 L 100.81 196.87 L 100.81 226.42 L 110.71 226.42 L 110.71 216.57 Z M 100.81 39.34 L 110.71 39.34 L 110.71 49.19 L 100.81 49.19 Z M 100.81 472.53 L 90.91 472.53 L 90.91 492.23 L 100.81 492.23 L 100.81 472.53 Z M 100.81 433.13 L 100.81 423.29 L 90.91 423.29 L 90.91 442.98 L 100.81 442.98 L 100.81 433.13 Z"
            fill="#ffe7b6"
            stroke-width="1"/>
        <path
            id="path_18"
            d="M 81.01 462.68 L 90.91 462.68 L 90.91 472.53 L 81.01 472.53 Z M 81.01 442.98 L 90.91 442.98 L 90.91 452.83 L 81.01 452.83 Z M 71.11 452.83 L 81.01 452.83 L 81.01 462.68 L 71.11 462.68 Z"
            fill="#ffe7b6"
            stroke-width="1"/>
        <path
            id="path_19"
            d="M 368.09 472.53 L 377.99 472.53 L 377.99 482.38 L 368.09 482.38 Z M 368.09 442.98 L 377.99 442.98 L 377.99 452.83 L 368.09 452.83 Z M 358.19 462.68 L 368.09 462.68 L 368.09 472.53 L 358.19 472.53 Z M 358.19 462.68 L 358.19 442.98 L 328.49 442.98 L 328.49 452.83 L 338.39 452.83 L 338.39 462.68 L 358.19 462.68 Z M 348.29 423.29 L 358.19 423.29 L 358.19 433.14 L 348.29 433.14 Z"
            fill="#fff4e0"
            stroke-width="1"/>
        <path
            id="path_20"
            d="M 338.39 472.53 L 338.39 462.68 L 328.49 462.68 L 328.49 482.38 L 338.39 482.38 L 338.39 492.23 L 348.29 492.23 L 348.29 482.38 L 358.19 482.38 L 358.19 472.53 L 338.39 472.53 Z M 338.39 413.44 L 348.29 413.44 L 348.29 423.29 L 338.39 423.29 Z M 328.48 403.59 L 338.38 403.59 L 338.38 413.44 L 328.48 413.44 Z M 328.48 383.94 L 338.38 383.94 L 338.38 393.74 L 328.48 393.74 Z M 318.58 492.23 L 318.58 502.02 L 308.68 502.02 L 308.68 511.87 L 328.49 511.87 L 328.49 502.02 L 338.39 502.02 L 338.39 492.23 L 318.58 492.23 Z M 328.49 423.29 L 328.49 413.44 L 318.58 413.44 L 318.58 433.13 L 308.68 433.13 L 308.68 442.98 L 328.49 442.98 L 328.49 423.29 Z M 318.58 393.74 L 328.48 393.74 L 328.48 403.59 L 318.58 403.59 Z M 308.68 383.94 L 318.58 383.94 L 318.58 393.74 L 308.68 393.74 Z M 308.68 226.42 L 318.58 226.42 L 318.58 236.27 L 308.68 236.27 Z M 318.58 78.74 L 328.49 78.74 L 328.49 68.89 L 338.39 68.89 L 338.39 49.19 L 328.49 49.19 L 328.49 59.04 L 318.58 59.04 L 318.58 68.89 L 308.68 68.89 L 308.68 88.59 L 318.58 88.59 L 318.58 78.74 Z"
            fill="#fff4e0"
            stroke-width="1"/>
        <path
            id="path_21"
            d="M 308.68 413.44 L 318.58 413.44 L 318.58 403.59 L 308.68 403.59 L 308.68 393.74 L 298.78 393.74 L 298.78 383.94 L 308.68 383.94 L 308.68 374.1 L 318.58 374.1 L 318.58 364.25 L 298.78 364.25 L 298.78 374.1 L 288.88 374.1 L 288.88 383.94 L 278.98 383.94 L 278.98 354.4 L 259.18 354.4 L 259.18 364.25 L 269.08 364.25 L 269.08 374.1 L 259.18 374.1 L 259.18 383.94 L 249.28 383.94 L 249.28 393.74 L 239.37 393.74 L 239.37 403.59 L 209.67 403.59 L 209.67 393.74 L 199.77 393.74 L 199.77 383.94 L 189.87 383.94 L 189.87 374.1 L 179.97 374.1 L 179.97 383.94 L 170.07 383.94 L 170.07 374.1 L 160.17 374.1 L 160.17 383.94 L 150.32 383.94 L 150.32 374.1 L 140.42 374.1 L 140.42 393.74 L 150.32 393.74 L 150.32 403.59 L 140.42 403.59 L 140.42 393.74 L 130.51 393.74 L 130.51 413.44 L 150.32 413.44 L 150.32 423.29 L 160.17 423.29 L 160.17 433.13 L 170.07 433.13 L 170.07 442.98 L 179.97 442.98 L 179.97 413.44 L 189.87 413.44 L 189.87 403.59 L 199.77 403.59 L 199.77 413.44 L 189.87 413.44 L 189.87 433.13 L 229.47 433.13 L 229.47 423.29 L 219.57 423.29 L 219.57 413.44 L 229.47 413.44 L 229.47 423.29 L 239.37 423.29 L 239.37 433.13 L 259.18 433.13 L 259.18 423.29 L 269.08 423.29 L 269.08 442.98 L 298.78 442.98 L 298.78 433.13 L 308.68 433.13 L 308.68 413.44 Z M 298.78 246.11 L 298.78 255.96 L 308.68 255.96 L 308.68 236.26 L 298.78 236.26 L 298.78 246.11 Z"
            fill="#fff4e0"
            stroke-width="1"/>
        <path
            id="path_22"
            d="M 298.78 167.32 L 288.88 167.32 L 288.88 187 L 259.18 187 L 259.18 177.15 L 269.08 177.15 L 269.08 167.3 L 259.18 167.3 L 259.18 157.46 L 269.08 157.46 L 269.08 147.66 L 239.37 147.66 L 239.37 137.81 L 229.47 137.81 L 229.47 128 L 219.57 128 L 219.57 137.85 L 209.67 137.85 L 209.67 147.7 L 179.99 147.7 L 179.99 167.34 L 189.89 167.34 L 189.89 187 L 160.19 187 L 160.19 177.15 L 170.09 177.15 L 170.09 167.3 L 140.41 167.3 L 140.41 157.46 L 120.61 157.46 L 120.61 167.3 L 130.51 167.3 L 130.51 177.15 L 140.41 177.15 L 140.41 196.85 L 130.51 196.85 L 130.51 216.55 L 140.41 216.55 L 140.41 226.4 L 130.51 226.4 L 130.51 236.25 L 140.41 236.25 L 140.41 246.09 L 150.32 246.09 L 150.32 256 L 160.17 256 L 160.17 246.15 L 170.07 246.15 L 170.07 236.31 L 179.99 236.31 L 179.99 246.15 L 170.09 246.15 L 170.09 256 L 160.19 256 L 160.19 265.85 L 150.34 265.85 L 150.34 285.5 L 170.09 285.5 L 170.09 275.65 L 179.99 275.65 L 179.99 256 L 189.89 256 L 189.89 246.15 L 199.79 246.15 L 199.79 206.72 L 209.69 206.72 L 209.69 196.87 L 239.39 196.87 L 239.39 206.72 L 249.29 206.72 L 249.29 246.11 L 239.39 246.11 L 239.39 256 L 249.29 256 L 249.29 265.85 L 269.1 265.85 L 269.1 246.15 L 259.2 246.15 L 259.2 236.31 L 269.1 236.31 L 269.1 246.15 L 288.9 246.15 L 288.9 236.31 L 298.8 236.31 L 298.8 226.46 L 308.7 226.46 L 308.7 216.61 L 318.6 216.61 L 318.6 206.76 L 328.5 206.76 L 328.5 196.91 L 318.6 196.91 L 318.6 187 L 308.7 187 L 308.7 177.15 L 318.6 177.15 L 318.6 167.3 L 308.7 167.3 L 308.7 157.46 L 298.8 157.46 Z M 278.99 216.57 L 269.09 216.57 L 269.09 206.72 L 278.99 206.72 Z M 179.99 216.57 L 170.09 216.57 L 170.09 206.72 L 179.99 206.72 Z M 150.34 206.72 L 160.19 206.72 L 160.19 216.57 L 150.34 216.57 Z M 288.9 216.57 L 288.9 206.72 L 298.8 206.72 L 298.8 216.57 Z"
            fill="#fff4e0"
            stroke-width="1"/>
        <path
            id="path_23"
            d="M 308.68 147.68 L 308.68 157.47 L 318.58 157.47 L 318.58 137.83 L 298.78 137.83 L 298.78 147.68 L 308.68 147.68 Z M 288.88 354.4 L 298.78 354.4 L 298.78 364.25 L 288.88 364.25 Z M 298.78 285.46 L 308.68 285.46 L 308.68 275.61 L 288.88 275.61 L 288.88 285.46 L 298.78 285.46 Z M 288.88 147.68 L 298.78 147.68 L 298.78 157.48 L 288.88 157.48 Z M 288.88 127.98 L 298.78 127.98 L 298.78 137.83 L 288.88 137.83 Z M 288.88 108.28 L 288.88 118.13 L 298.78 118.13 L 298.78 127.98 L 308.68 127.98 L 308.68 118.13 L 318.58 118.13 L 318.58 98.44 L 298.78 98.44 L 298.78 108.28 L 288.88 108.28 Z M 278.98 285.46 L 288.88 285.46 L 288.88 295.31 L 278.98 295.31 Z"
            fill="#fff4e0"
            stroke-width="1"/>
        <path
            id="path_24"
            d="M 278.98 255.96 L 278.98 265.81 L 269.08 265.81 L 269.08 275.61 L 249.28 275.61 L 249.28 285.46 L 239.37 285.46 L 239.37 275.61 L 249.28 275.61 L 249.28 265.81 L 239.37 265.81 L 239.37 255.96 L 209.67 255.96 L 209.67 265.81 L 219.57 265.81 L 219.57 275.61 L 209.67 275.61 L 209.67 265.81 L 199.77 265.81 L 199.77 255.96 L 189.87 255.96 L 189.87 275.61 L 179.97 275.61 L 179.97 285.46 L 189.87 285.46 L 189.87 295.31 L 209.67 295.31 L 209.67 285.46 L 219.57 285.46 L 219.57 295.31 L 229.47 295.31 L 229.47 315 L 249.28 315 L 249.28 295.31 L 259.18 295.31 L 259.18 285.46 L 278.98 285.46 L 278.98 275.61 L 288.88 275.61 L 288.88 265.81 L 298.78 265.81 L 298.78 255.96 L 278.98 255.96 Z M 288.88 98.44 L 298.78 98.44 L 298.78 88.59 L 278.98 88.59 L 278.98 108.28 L 288.88 108.28 L 288.88 98.44 Z M 278.98 147.68 L 288.88 147.68 L 288.88 137.83 L 269.08 137.83 L 269.08 147.68 L 278.98 147.68 Z"
            fill="#fff4e0"
            stroke-width="1"/>
        <path
            id="path_25"
            d="M 259.18 295.31 L 259.18 305.15 L 269.08 305.15 L 269.08 315 L 288.88 315 L 288.88 305.15 L 278.98 305.15 L 278.98 295.31 L 259.18 295.31 Z M 259.18 127.98 L 269.08 127.98 L 269.08 137.83 L 259.18 137.83 Z M 259.18 118.13 L 269.08 118.13 L 269.08 127.98 L 278.98 127.98 L 278.98 108.28 L 269.08 108.28 L 269.08 98.44 L 259.18 98.44 L 259.18 118.13 Z M 239.37 511.87 L 249.27 511.87 L 249.27 521.72 L 239.37 521.72 Z M 239.37 492.23 L 249.27 492.23 L 249.27 502.03 L 239.37 502.03 Z M 239.37 226.42 L 239.37 216.57 L 229.47 216.57 L 229.47 236.26 L 239.37 236.26 L 239.37 226.42 Z M 219.57 502.02 L 229.47 502.02 L 229.47 511.87 L 219.57 511.87 Z M 219.57 236.27 L 229.47 236.27 L 229.47 246.12 L 219.57 246.12 Z M 219.57 78.74 L 219.57 88.59 L 209.67 88.59 L 209.67 78.74 L 199.77 78.74 L 199.77 88.59 L 189.87 88.59 L 189.87 98.44 L 179.97 98.44 L 179.97 108.28 L 189.87 108.28 L 189.87 118.13 L 199.77 118.13 L 199.77 127.98 L 209.67 127.98 L 209.67 118.13 L 219.57 118.13 L 219.57 98.44 L 229.47 98.44 L 229.47 88.59 L 239.37 88.59 L 239.37 98.44 L 229.47 98.44 L 229.47 118.13 L 239.37 118.13 L 239.37 127.98 L 259.18 127.98 L 259.18 118.13 L 249.28 118.13 L 249.28 98.44 L 259.18 98.44 L 259.18 88.59 L 249.28 88.59 L 249.28 78.74 L 239.37 78.74 L 239.37 68.89 L 229.47 68.89 L 229.47 78.74 L 219.57 78.74 Z M 209.67 511.87 L 219.57 511.87 L 219.57 521.72 L 209.67 521.72 Z M 209.67 305.15 L 209.67 315 L 219.57 315 L 219.57 295.31 L 209.67 295.31 L 209.67 305.15 Z M 219.57 226.42 L 219.57 216.57 L 209.67 216.57 L 209.67 236.26 L 219.57 236.26 L 219.57 226.42 Z M 199.77 502.02 L 209.67 502.02 L 209.67 511.87 L 199.77 511.87 Z M 199.77 246.11 L 209.67 246.11 L 209.67 255.96 L 199.77 255.96 Z"
            fill="#fff4e0"
            stroke-width="1"/>
        <path
            id="path_26"
            d="M 209.67 68.89 L 209.67 78.74 L 219.57 78.74 L 219.57 68.89 L 229.47 68.89 L 229.47 59.04 L 219.57 59.04 L 219.57 49.19 L 209.67 49.19 L 209.67 59.04 L 199.77 59.04 L 199.77 68.89 L 209.67 68.89 Z"
            fill="#fff4e0"
            stroke-width="1"/>
        <path
            id="path_27"
            d="M 199.77 59.04 L 199.77 49.19 L 179.97 49.19 L 179.97 59.04 L 199.77 59.04 Z M 179.97 511.87 L 189.87 511.87 L 189.87 521.72 L 179.97 521.72 Z M 179.97 305.15 L 170.07 305.15 L 170.07 315 L 199.77 315 L 199.77 305.15 L 189.87 305.15 L 189.87 295.31 L 179.97 295.31 L 179.97 305.15 Z M 179.97 127.98 L 189.87 127.98 L 189.87 137.83 L 179.97 137.83 Z M 179.97 364.25 L 189.87 364.25 L 189.87 354.4 L 170.07 354.4 L 170.07 374.1 L 179.97 374.1 L 179.97 364.25 Z M 170.07 285.46 L 179.97 285.46 L 179.97 295.31 L 170.07 295.31 Z M 170.07 137.83 L 179.97 137.83 L 179.97 147.68 L 170.07 147.68 Z M 150.32 492.23 L 160.17 492.23 L 160.17 502.03 L 150.32 502.03 Z M 160.17 364.25 L 160.17 354.4 L 150.32 354.4 L 150.32 374.1 L 160.17 374.1 L 160.17 364.25 Z M 160.17 305.15 L 170.07 305.15 L 170.07 295.31 L 150.32 295.31 L 150.32 324.85 L 170.07 324.85 L 170.07 315 L 160.17 315 L 160.17 305.15 Z M 150.32 147.68 L 160.17 147.68 L 160.17 157.48 L 150.32 157.48 Z M 140.42 285.46 L 150.32 285.46 L 150.32 295.31 L 140.42 295.31 Z M 140.42 255.96 L 150.32 255.96 L 150.32 265.81 L 140.42 265.81 Z M 130.51 423.29 L 130.51 413.44 L 120.61 413.44 L 120.61 403.59 L 110.71 403.59 L 110.71 393.74 L 100.81 393.74 L 100.81 413.44 L 110.71 413.44 L 110.71 423.29 L 100.81 423.29 L 100.81 442.98 L 120.61 442.98 L 120.61 433.13 L 130.51 433.13 L 130.51 442.98 L 150.32 442.98 L 150.32 423.29 L 130.51 423.29 Z M 140.42 364.25 L 140.42 354.4 L 120.61 354.4 L 120.61 364.25 L 130.51 364.25 L 130.51 374.1 L 140.42 374.1 L 140.42 364.25 Z M 130.52 265.81 L 140.42 265.81 L 140.42 275.61 L 130.52 275.61 Z"
            fill="#fff4e0"
            stroke-width="1"/>
        <path
            id="path_28"
            d="M 140.42 88.59 L 140.42 98.44 L 150.32 98.44 L 150.32 108.28 L 160.17 108.28 L 160.17 118.13 L 150.32 118.13 L 150.32 108.28 L 140.42 108.28 L 140.42 98.44 L 130.51 98.44 L 130.51 108.28 L 110.71 108.28 L 110.71 127.98 L 120.61 127.98 L 120.61 137.83 L 130.51 137.83 L 130.51 147.68 L 150.32 147.68 L 150.32 137.83 L 140.42 137.83 L 140.42 127.98 L 130.51 127.98 L 130.51 118.13 L 140.42 118.13 L 140.42 127.98 L 150.32 127.98 L 150.32 137.83 L 170.07 137.83 L 170.07 127.98 L 179.97 127.98 L 179.97 118.13 L 170.07 118.13 L 170.07 98.44 L 160.17 98.44 L 160.17 88.59 L 170.07 88.59 L 170.07 98.44 L 179.97 98.44 L 179.97 88.59 L 189.87 88.59 L 189.87 78.74 L 199.77 78.74 L 199.77 68.89 L 179.97 68.89 L 179.97 59.04 L 160.17 59.04 L 160.17 78.74 L 130.51 78.74 L 130.51 88.59 L 140.42 88.59 Z M 120.61 521.72 L 130.51 521.72 L 130.51 531.57 L 120.61 531.57 Z M 120.61 442.98 L 130.51 442.98 L 130.51 452.83 L 120.61 452.83 Z M 130.51 393.74 L 130.51 374.1 L 110.71 374.1 L 110.71 393.74 L 130.51 393.74 Z M 120.61 216.57 L 120.61 196.87 L 110.71 196.87 L 110.71 226.42 L 130.51 226.42 L 130.51 216.57 L 120.61 216.57 Z M 130.51 187.02 L 130.51 177.17 L 120.61 177.17 L 120.61 196.87 L 130.51 196.87 L 130.51 187.02 Z M 110.71 502.02 L 100.81 502.02 L 100.81 511.87 L 150.32 511.87 L 150.32 502.02 L 130.51 502.02 L 130.51 492.23 L 120.61 492.23 L 120.61 502.02 L 110.71 502.02 Z M 120.61 78.74 L 130.51 78.74 L 130.51 68.89 L 120.61 68.89 L 120.61 59.04 L 110.71 59.04 L 110.71 49.19 L 100.81 49.19 L 100.81 78.74 L 120.61 78.74 Z"
            fill="#fff4e0"
            stroke-width="1"/>
        <path
            id="path_29"
            d="M 100.81 452.83 L 100.81 442.98 L 90.91 442.98 L 90.91 452.83 L 81.01 452.83 L 81.01 462.68 L 90.91 462.68 L 90.91 472.53 L 100.81 472.53 L 100.81 462.68 L 110.71 462.68 L 110.71 472.53 L 100.81 472.53 L 100.81 492.23 L 120.61 492.23 L 120.61 452.83 L 100.81 452.83 Z M 90.91 413.44 L 100.81 413.44 L 100.81 423.29 L 90.91 423.29 Z"
            fill="#fff4e0"
            stroke-width="1"/>
        <path
            id="path_30"
            d="M 81.01 472.53 L 90.91 472.53 L 90.91 482.38 L 81.01 482.38 Z M 90.91 442.98 L 90.91 423.29 L 81.01 423.29 L 81.01 433.13 L 71.11 433.13 L 71.11 452.83 L 81.01 452.83 L 81.01 442.98 L 90.91 442.98 Z M 71.11 462.68 L 81.01 462.68 L 81.01 472.53 L 71.11 472.53 Z"
            fill="#fff4e0"
            stroke-width="1"/>
        <path
            id="path_31"
            d="M 288.88 0 L 288.88 9.85 L 278.98 9.85 L 278.98 19.7 L 298.78 19.7 L 298.78 0 L 288.88 0 Z M 278.98 49.19 L 269.08 49.19 L 269.08 59.04 L 249.28 59.04 L 249.28 49.19 L 239.37 49.19 L 239.37 39.34 L 229.47 39.34 L 229.47 59.04 L 239.37 59.04 L 239.37 68.89 L 249.28 68.89 L 249.28 78.74 L 288.88 78.74 L 288.88 68.89 L 298.78 68.89 L 298.78 39.34 L 288.88 39.34 L 288.88 29.55 L 278.98 29.55 L 278.98 49.19 Z M 269.08 19.7 L 278.98 19.7 L 278.98 29.55 L 269.08 29.55 Z"
            fill="#004973"
            stroke-width="1"/>
        <path
            id="path_32"
            d="M 249.28 29.55 L 259.18 29.55 L 259.18 39.35 L 249.28 39.35 Z"
            fill="#004973"
            stroke-width="1"/>
        <path
            id="path_33"
            d="M 278.98 0 L 288.88 0 L 288.88 9.85 L 278.98 9.85 Z M 269.08 9.85 L 278.98 9.85 L 278.98 19.7 L 269.08 19.7 Z"
            fill="#006ba8"
            stroke-width="1"/>
        <path
            id="path_34"
            d="M 259.18 9.85 L 219.57 9.85 L 219.57 19.7 L 209.67 19.7 L 209.67 49.19 L 219.57 49.19 L 219.57 59 L 229.47 59 L 229.47 39.3 L 239.37 39.3 L 239.37 49.15 L 249.27 49.15 L 249.27 59 L 269.08 59 L 269.08 49.15 L 278.99 49.15 L 278.99 29.55 L 269.09 29.55 L 269.09 19.7 L 259.19 19.7 Z M 259.18 39.34 L 249.27 39.34 L 249.27 29.55 L 259.18 29.55 Z"
            fill="#006ba8"
            stroke-width="1"/>
        <path
            id="path_35"
            d="M 249.28 354.4 L 249.28 344.55 L 229.47 344.55 L 229.47 334.7 L 219.57 334.7 L 219.57 344.55 L 209.67 344.55 L 209.67 364.25 L 219.57 364.25 L 219.57 354.4 L 229.47 354.4 L 229.47 364.25 L 219.57 364.25 L 219.57 374.1 L 229.47 374.1 L 229.47 403.59 L 239.37 403.59 L 239.37 393.74 L 249.28 393.74 L 249.28 383.94 L 239.37 383.94 L 239.37 364.25 L 249.28 364.25 L 249.28 383.94 L 259.18 383.94 L 259.18 354.4 L 249.28 354.4 Z M 199.77 383.94 L 199.77 393.74 L 209.67 393.74 L 209.67 403.59 L 219.57 403.59 L 219.57 383.94 L 199.77 383.94 Z"
            fill="#e7ac37"
            stroke-width="1"/>
        <path
            id="path_36"
            d="M 199.77 354.4 L 199.77 374.1 L 209.67 374.1 L 209.67 354.4 L 199.77 354.4 Z"
            fill="#ffee2b"
            stroke-width="1"/>
        <path
            id="path_37"
            d="M 239.37 364.25 L 239.37 383.94 L 249.28 383.94 L 249.28 364.25 L 239.37 364.25 Z M 219.57 354.4 L 229.47 354.4 L 229.47 364.25 L 219.57 364.25 Z M 209.67 374.1 L 199.77 374.1 L 199.77 354.4 L 189.87 354.4 L 189.87 383.94 L 219.57 383.94 L 219.57 364.25 L 209.67 364.25 L 209.67 374.1 Z M 199.77 344.55 L 209.67 344.55 L 209.67 354.4 L 199.77 354.4 Z"
            fill="#edcf47"
            stroke-width="1"/>
    </g>
    <g id="title_alpaca">
        <path
            id="path_46"
            d="M 86.28 570.68 L 86.28 566.36 L 78.08 566.36 L 78.08 570.68 L 43.14 570.68 L 43.14 566.36 L 38.83 566.36 L 38.83 505.61 L 47.45 505.61 L 47.45 496.9 L 99.65 496.9 L 99.65 501.22 L 103.96 501.22 L 103.96 505.61 L 108.28 505.61 L 108.28 509.85 L 112.59 509.85 L 112.59 566.36 L 108.28 566.36 L 108.28 570.68 L 86.28 570.68 Z"
            fill="#f4a386"
            stroke-width="1"/>
        <path
            id="path_47"
            d="M 112.17 570.68 L 112.17 566.36 L 107.85 566.36 L 107.85 509.92 L 112.17 509.92 L 112.17 505.53 L 142.79 505.53 L 142.79 509.92 L 147.1 509.92 L 147.1 540.05 L 164.36 540.05 L 164.36 544.36 L 168.67 544.36 L 168.67 566.36 L 164.36 566.36 L 164.36 570.68 L 112.17 570.68 Z"
            fill="#f4a386"
            stroke-width="1"/>
        <path
            id="path_48"
            d="M 168.25 570.68 L 168.25 566.36 L 163.94 566.36 L 163.94 509.92 L 168.25 509.92 L 168.25 505.53 L 220.44 505.53 L 220.44 509.92 L 224.76 509.92 L 224.76 514.16 L 229.07 514.16 L 229.07 544.79 L 224.76 544.79 L 224.76 549.11 L 220.44 549.11 L 220.44 553.42 L 203.19 553.42 L 203.19 566.36 L 198.87 566.36 L 198.87 570.68 L 168.25 570.68 Z"
            fill="#f4a386"
            stroke-width="1"/>
        <path
            id="path_49"
            d="M 267.48 570.68 L 267.48 566.36 L 259.28 566.36 L 259.28 570.68 L 228.65 570.68 L 228.65 566.36 L 224.34 566.36 L 224.34 514.23 L 232.96 514.23 L 232.96 505.53 L 280.85 505.53 L 280.85 509.85 L 285.16 509.85 L 285.16 514.23 L 289.47 514.23 L 289.47 566.36 L 285.16 566.36 L 285.16 570.68 L 267.48 570.68 Z"
            fill="#f4a386"
            stroke-width="1"/>
        <path
            id="path_50"
            d="M 293.36 570.68 L 293.36 566.36 L 289.04 566.36 L 289.04 562.04 L 284.73 562.04 L 284.73 514.23 L 293.36 514.23 L 293.36 505.53 L 345.56 505.53 L 345.56 509.85 L 349.88 509.85 L 349.88 527.61 L 345.56 527.61 L 345.56 531.85 L 323.99 531.85 L 323.99 540.05 L 345.56 540.05 L 345.56 544.36 L 349.88 544.36 L 349.88 566.36 L 345.56 566.36 L 345.56 570.68 L 293.36 570.68 Z"
            fill="#f4a386"
            stroke-width="1"/>
        <path
            id="path_51"
            d="M 388.27 570.68 L 388.27 566.36 L 380.07 566.36 L 380.07 570.68 L 349.44 570.68 L 349.44 566.36 L 345.12 566.36 L 345.12 514.23 L 353.75 514.23 L 353.75 505.53 L 401.64 505.53 L 401.64 509.85 L 405.95 509.85 L 405.95 514.23 L 410.27 514.23 L 410.27 566.36 L 405.95 566.36 L 405.95 570.68 L 388.27 570.68 Z"
            fill="#f4a386"
            stroke-width="1"/>
        <path
            id="path_52"
            d="M 101.59 516.54 L 105.91 516.54 L 105.91 559.68 L 101.59 559.68 L 101.59 564 L 92.99 564 L 92.99 559.69 L 88.67 559.69 L 88.67 533.79 L 75.71 533.79 L 75.71 559.68 L 71.39 559.68 L 71.39 564 L 49.82 564 L 49.82 559.69 L 45.51 559.69 L 45.51 512.29 L 49.82 512.29 L 49.82 516.54 L 54.14 516.54 L 54.14 512.29 L 58.45 512.29 L 58.45 507.9 L 54.14 507.9 L 54.14 503.59 L 92.99 503.59 L 92.99 507.9 L 97.3 507.9 L 97.3 512.29 L 101.61 512.29 Z M 75.71 525.16 L 88.65 525.16 L 88.65 516.54 L 75.71 516.54 Z M 157.68 546.73 L 157.68 551.05 L 161.99 551.05 L 161.99 559.68 L 157.68 559.68 L 157.68 564 L 118.85 564 L 118.85 559.69 L 114.53 559.69 L 114.53 516.61 L 118.85 516.61 L 118.85 512.22 L 136.11 512.22 L 136.11 516.61 L 140.42 516.61 L 140.42 546.73 Z M 118.85 516.61 L 118.85 525.16 L 123.16 525.16 L 123.16 520.85 L 127.48 520.85 L 127.48 516.61 Z M 218.08 520.85 L 222.39 520.85 L 222.39 538.1 L 218.08 538.1 L 218.08 542.42 L 213.76 542.42 L 213.76 546.73 L 196.5 546.73 L 196.5 559.68 L 192.19 559.68 L 192.19 564 L 174.93 564 L 174.93 559.69 L 170.62 559.69 L 170.62 516.61 L 174.93 516.61 L 174.93 512.22 L 213.76 512.22 L 213.76 516.61 L 218.08 516.61 Z M 174.93 516.61 L 174.93 525.16 L 179.25 525.16 L 179.25 520.85 L 183.56 520.85 L 183.56 516.61 Z M 196.5 525.16 L 196.5 538.1 L 205.13 538.1 L 205.13 525.16 Z M 278.47 520.92 L 282.79 520.92 L 282.79 559.68 L 278.47 559.68 L 278.47 564 L 274.16 564 L 274.16 559.69 L 269.84 559.69 L 269.84 542.42 L 256.9 542.42 L 256.9 559.68 L 252.59 559.68 L 252.59 564 L 235.33 564 L 235.33 559.69 L 230.99 559.69 L 230.99 520.92 L 235.3 520.92 L 235.3 525.16 L 239.62 525.16 L 239.62 520.92 L 243.99 520.92 L 243.99 516.54 L 239.68 516.54 L 239.68 512.22 L 274.19 512.22 L 274.19 516.54 L 278.5 516.54 Z M 269.84 525.16 L 256.9 525.16 L 256.9 529.55 L 269.84 529.55 Z M 338.87 516.54 L 343.19 516.54 L 343.19 520.92 L 338.87 520.92 L 338.87 525.16 L 317.3 525.16 L 317.3 546.73 L 338.87 546.73 L 338.87 551.05 L 343.19 551.05 L 343.19 559.68 L 338.87 559.68 L 338.87 564 L 300.05 564 L 300.05 559.69 L 295.73 559.69 L 295.73 555.37 L 291.42 555.37 L 291.42 520.92 L 295.73 520.92 L 295.73 525.16 L 300.05 525.16 L 300.05 520.92 L 304.36 520.92 L 304.36 516.54 L 300.05 516.54 L 300.05 512.22 L 338.87 512.22 Z M 399.27 520.92 L 403.58 520.92 L 403.58 559.68 L 399.27 559.68 L 399.27 564 L 394.99 564 L 394.99 559.69 L 390.68 559.69 L 390.68 542.42 L 377.7 542.42 L 377.7 559.68 L 373.38 559.68 L 373.38 564 L 356.12 564 L 356.12 559.69 L 351.81 559.69 L 351.81 520.92 L 356.12 520.92 L 356.12 525.16 L 360.44 525.16 L 360.44 520.92 L 364.75 520.92 L 364.75 516.54 L 360.44 516.54 L 360.44 512.22 L 394.99 512.22 L 394.99 516.54 L 399.31 516.54 Z M 390.64 525.16 L 377.7 525.16 L 377.7 529.55 L 390.64 529.55 Z"
            fill="#fff49a"
            stroke-width="1"/>
    </g>
    <g id="art_alpaca">
        <path
            id="path_38"
            d="M 8.63 645.9 L 8.63 641.59 L 4.32 641.59 L 4.32 637.27 L 0 637.27 L 0 580.84 L 8.63 580.84 L 8.63 572.13 L 69.45 572.13 L 69.45 576.45 L 73.76 576.45 L 73.76 594.13 L 69.45 594.13 L 69.45 598.02 L 73.76 598.02 L 73.76 637.27 L 69.45 637.27 L 69.45 641.59 L 65.13 641.59 L 65.13 645.9 L 8.63 645.9 Z"
            fill="#f4a386"
            stroke-width="1"/>
        <path
            id="path_39"
            d="M 112.17 645.9 L 112.17 641.59 L 103.96 641.59 L 103.96 645.9 L 73.34 645.9 L 73.34 641.59 L 69.03 641.59 L 69.03 589.46 L 77.65 589.46 L 77.65 580.76 L 125.53 580.76 L 125.53 585.08 L 129.85 585.08 L 129.85 589.46 L 134.16 589.46 L 134.16 641.59 L 129.85 641.59 L 129.85 645.9 L 112.17 645.9 Z"
            fill="#f4a386"
            stroke-width="1"/>
        <path
            id="path_40"
            d="M 172.57 645.9 L 172.57 641.59 L 164.36 641.59 L 164.36 645.9 L 133.74 645.9 L 133.74 641.59 L 129.42 641.59 L 129.42 585.15 L 133.74 585.15 L 133.74 580.76 L 164.36 580.76 L 164.36 585.15 L 172.57 585.15 L 172.57 580.76 L 194.56 580.76 L 194.56 585.15 L 198.87 585.15 L 198.87 641.59 L 194.56 641.59 L 194.56 645.9 L 172.57 645.9 Z"
            fill="#f4a386"
            stroke-width="1"/>
        <path
            id="path_41"
            d="M 198.45 645.9 L 198.45 641.59 L 194.14 641.59 L 194.14 585.08 L 198.45 585.08 L 198.45 580.76 L 254.96 580.76 L 254.96 585.08 L 259.28 585.08 L 259.28 641.59 L 254.96 641.59 L 254.96 645.9 L 198.45 645.9 Z"
            fill="#f4a386"
            stroke-width="1"/>
        <path
            id="path_42"
            d="M 258.84 645.9 L 258.84 641.59 L 254.53 641.59 L 254.53 576.52 L 258.84 576.52 L 258.84 572.13 L 315.36 572.13 L 315.36 576.52 L 319.68 576.52 L 319.68 580.76 L 323.99 580.76 L 323.99 585.08 L 328.3 585.08 L 328.3 637.27 L 323.99 637.27 L 323.99 641.59 L 319.68 641.59 L 319.68 645.9 L 258.84 645.9 Z"
            fill="#f4a386"
            stroke-width="1"/>
        <path
            id="path_43"
            d="M 327.87 645.9 L 327.87 641.59 L 323.56 641.59 L 323.56 585.08 L 327.87 585.08 L 327.87 580.76 L 384.38 580.76 L 384.38 585.08 L 388.7 585.08 L 388.7 641.59 L 384.38 641.59 L 384.38 645.9 L 327.87 645.9 Z"
            fill="#f4a386"
            stroke-width="1"/>
        <path
            id="path_44"
            d="M 392.58 645.9 L 392.58 641.59 L 388.27 641.59 L 388.27 637.27 L 383.95 637.27 L 383.95 585.15 L 388.27 585.15 L 388.27 580.76 L 418.9 580.76 L 418.9 585.15 L 422.78 585.15 L 422.78 580.76 L 444.78 580.76 L 444.78 585.15 L 449.1 585.15 L 449.1 624.34 L 444.78 624.34 L 444.78 628.65 L 440.47 628.65 L 440.47 632.96 L 436.16 632.96 L 436.16 637.27 L 431.84 637.27 L 431.84 641.59 L 427.53 641.59 L 427.53 645.9 L 392.58 645.9 Z"
            fill="#f4a386"
            stroke-width="1"/>
        <path
            id="path_45"
            d="M 62.77 583.13 L 67.08 583.13 L 67.08 587.45 L 62.77 587.45 L 62.77 591.76 L 36.88 591.76 L 36.88 622 L 49.82 622 L 49.82 613.37 L 45.51 613.37 L 45.51 609 L 41.2 609 L 41.2 604.69 L 45.51 604.69 L 45.51 600.37 L 62.77 600.37 L 62.77 604.69 L 67.08 604.69 L 67.08 630.57 L 62.77 630.57 L 62.77 634.89 L 58.45 634.89 L 58.45 639.2 L 15.31 639.2 L 15.31 634.89 L 10.99 634.89 L 10.99 630.57 L 6.67 630.57 L 6.67 587.52 L 10.99 587.52 L 10.99 591.76 L 15.3 591.76 L 15.3 587.52 L 19.61 587.52 L 19.61 583.13 L 15.3 583.13 L 15.3 578.82 L 62.76 578.82 Z M 123.17 596.15 L 127.48 596.15 L 127.48 634.91 L 123.17 634.91 L 123.17 639.22 L 118.85 639.22 L 118.85 634.91 L 114.53 634.91 L 114.53 617.65 L 101.59 617.65 L 101.59 634.91 L 97.28 634.91 L 97.28 639.22 L 79.99 639.22 L 79.99 634.91 L 75.68 634.91 L 75.68 596.15 L 79.99 596.15 L 79.99 600.39 L 84.31 600.39 L 84.31 596.15 L 88.62 596.15 L 88.62 591.76 L 84.31 591.76 L 84.31 587.45 L 118.82 587.45 L 118.82 591.76 L 123.14 591.76 Z M 114.53 600.39 L 101.59 600.39 L 101.59 604.78 L 114.53 604.78 Z M 187.88 587.45 L 187.88 591.84 L 192.19 591.84 L 192.19 634.91 L 187.88 634.91 L 187.88 639.22 L 179.25 639.22 L 179.25 634.91 L 174.93 634.91 L 174.93 617.65 L 170.62 617.65 L 170.62 622 L 166.31 622 L 166.31 617.69 L 161.99 617.69 L 161.99 634.95 L 157.68 634.95 L 157.68 639.26 L 140.42 639.26 L 140.42 634.95 L 136.11 634.95 L 136.11 591.84 L 140.42 591.84 L 140.42 587.45 L 157.68 587.45 L 157.68 591.84 L 161.99 591.84 L 161.99 600.39 L 166.31 600.39 L 166.31 604.71 L 170.62 604.71 L 170.62 600.39 L 174.93 600.39 L 174.93 591.84 L 179.25 591.84 L 179.25 587.45 Z M 140.42 591.84 L 140.42 600.39 L 144.73 600.39 L 144.73 596.08 L 149.05 596.08 L 149.05 591.84 Z M 248.28 587.45 L 248.28 591.76 L 252.59 591.76 L 252.59 596.15 L 248.28 596.15 L 248.28 600.39 L 226.7 600.39 L 226.7 604.71 L 248.28 604.71 L 248.28 609 L 252.59 609 L 252.59 613.39 L 248.28 613.39 L 248.28 617.7 L 226.7 617.7 L 226.7 622 L 248.28 622 L 248.28 626.32 L 252.59 626.32 L 252.59 634.95 L 248.28 634.95 L 248.28 639.26 L 205.13 639.26 L 205.13 634.95 L 200.82 634.95 L 200.82 591.76 L 205.13 591.76 L 205.13 587.45 Z M 205.13 591.76 L 205.13 600.46 L 209.45 600.46 L 209.45 596.15 L 213.76 596.15 L 213.76 591.76 Z M 317.3 587.45 L 317.3 591.76 L 321.62 591.76 L 321.62 630.59 L 317.3 630.59 L 317.3 634.91 L 312.99 634.91 L 312.99 639.22 L 265.53 639.22 L 265.53 634.91 L 261.22 634.91 L 261.22 583.21 L 265.53 583.21 L 265.53 578.82 L 308.67 578.82 L 308.67 583.21 L 312.99 583.21 L 312.99 587.45 Z M 265.53 583.21 L 265.53 591.76 L 269.85 591.76 L 269.85 587.45 L 274.16 587.45 L 274.16 583.21 Z M 304.36 596.08 L 300.05 596.08 L 300.05 591.76 L 291.42 591.76 L 291.42 622 L 300.05 622 L 300.05 617.69 L 304.36 617.69 Z M 377.7 587.45 L 377.7 591.76 L 381.99 591.76 L 381.99 596.15 L 377.67 596.15 L 377.67 600.39 L 356.13 600.39 L 356.13 604.71 L 377.7 604.71 L 377.7 609 L 381.99 609 L 381.99 613.39 L 377.67 613.39 L 377.67 617.7 L 356.13 617.7 L 356.13 622 L 377.7 622 L 377.7 626.32 L 381.99 626.32 L 381.99 634.95 L 377.67 634.95 L 377.67 639.26 L 334.55 639.26 L 334.55 634.95 L 330.24 634.95 L 330.24 591.76 L 334.55 591.76 L 334.55 587.45 Z M 334.55 591.76 L 334.55 600.46 L 338.87 600.46 L 338.87 596.15 L 343.19 596.15 L 343.19 591.76 Z M 438.1 587.45 L 438.1 591.84 L 442.41 591.84 L 442.41 617.65 L 438.1 617.65 L 438.1 622 L 433.78 622 L 433.78 626.32 L 429.47 626.32 L 429.47 630.63 L 425.15 630.63 L 425.15 634.95 L 420.84 634.95 L 420.84 639.26 L 399.27 639.26 L 399.27 634.95 L 394.99 634.95 L 394.99 630.63 L 390.68 630.63 L 390.68 591.84 L 394.99 591.84 L 394.99 587.45 L 412.25 587.45 L 412.25 591.84 L 416.57 591.84 L 416.57 617.65 L 420.88 617.65 L 420.88 613.33 L 425.19 613.33 L 425.19 591.84 L 429.51 591.84 L 429.51 587.45 Z M 394.99 591.84 L 394.99 600.39 L 399.31 600.39 L 399.31 596.08 L 403.62 596.08 L 403.62 591.84 Z"
            fill="#fff49a"
            stroke-width="1"/>
    </g>
</svg>
