<svg xmlns="http://www.w3.org/2000/svg" viewBox="0 0 1008 224"><defs><style>.cls-1{fill:#a6d4c2;}</style></defs><title>bg</title><g id="Row04"><path class="cls-1" d="M42.55,198.8v-5.6h11.2V182h5.6v5.6H65v5.6h5.6v5.6H65v5.6h-5.6V210h-5.6V198.8Z"/><path class="cls-1" d="M98.55,210V182h28v28Zm5.6-5.6H121V187.6h-16.8Z"/><path class="cls-1" d="M182.55,210h-28V198.8h5.6V187.6h5.6V182h5.6v5.6H177v11.2h5.6Zm-22.4-11.2v5.6h5.6v-5.6Zm16.8,0h-5.6v5.6H177Z"/><path class="cls-1" d="M216.15,204.4h-5.6V187.6h5.6V182H233v5.6h5.6v5.6H233v5.6h5.6v5.6H233V210h-16.8Zm5.6-16.8v5.6h5.6v-5.6Z"/><path class="cls-1" d="M266.55,198.8v-5.6h5.6v-5.6h5.6V182h5.6v5.6H289v5.6h5.6v5.6h-11.2v5.6h-5.6v-5.6Zm5.6,5.6h5.6V210h-5.6Zm11.2,5.6v-5.6H289V210Z"/><path class="cls-1" d="M333.75,204.4h-5.6v-5.6h-5.6V182h5.6v5.6h5.6V182h5.6v5.6H345V182h5.6v16.8H345v5.6h-5.6V210h-5.6Zm-5.6,5.6h-5.6v-5.6h5.6Zm16.8,0v-5.6h5.6V210Z"/><path class="cls-1" d="M384.15,210h-5.6V193.2h5.6v-5.6h5.6V182h5.6v5.6H401v5.6h5.6V210H401v-5.6h-5.6V210h-5.6v-5.6h-5.6Z"/><path class="cls-1" d="M440.15,204.4V210h-5.6V187.6h5.6V182H457v5.6h5.6V210H457v-5.6h-5.6V210h-5.6v-5.6Zm0-16.8v5.6h5.6v-5.6Zm16.8,0h-5.6v5.6H457Z"/><path class="cls-1" d="M496.15,204.4h-5.6V193.2h5.6v-5.6h5.6V182h5.6v5.6H513v5.6h5.6v11.2H513V210h-5.6v-5.6h-5.6V210h-5.6Z"/><path class="cls-1" d="M552.15,204.4h-5.6V187.6h5.6V182H569v5.6h5.6v16.8H569V210h-16.8Zm16.8,0V187.6h-16.8v16.8Z"/><path class="cls-1" d="M630.55,210H625v-5.6h-5.6V210h-5.6v-5.6h-5.6V210h-5.6v-5.6h5.6v-5.6h-5.6V187.6h5.6V182H625v5.6h5.6v11.2H625v5.6h5.6Zm-22.4-22.4v5.6h5.6v-5.6Zm16.8,0h-5.6v5.6H625Z"/><path class="cls-1" d="M686.55,210h-28V198.8h5.6V187.6h5.6V182h5.6v5.6H681v11.2h5.6Zm-22.4-11.2v5.6h5.6v-5.6Zm16.8,0h-5.6v5.6H681Z"/><path class="cls-1" d="M714.55,198.8v-5.6h5.6v-5.6h5.6V182h5.6v5.6H737v5.6h5.6v5.6h-11.2v5.6h-5.6v-5.6Zm5.6,5.6h5.6V210h-5.6Zm11.2,5.6v-5.6H737V210Z"/><path class="cls-1" d="M770.55,198.8V187.6h11.2V182h5.6v5.6h11.2v11.2h-11.2v5.6H793V210h-16.8v-5.6h5.6v-5.6Z"/><path class="cls-1" d="M832.15,204.4V210h-5.6V187.6h5.6V182H849v5.6h5.6V210H849v-5.6h-5.6V210h-5.6v-5.6Zm0-16.8v5.6h5.6v-5.6Zm16.8,0h-5.6v5.6H849Z"/><path class="cls-1" d="M882.55,198.8V187.6h11.2V182h5.6v5.6h11.2v11.2h-11.2v5.6H905V210h-16.8v-5.6h5.6v-5.6Z"/><path class="cls-1" d="M944.15,210h-5.6V193.2h5.6v-5.6h5.6V182h5.6v5.6H961v5.6h5.6V210H961v-5.6h-5.6V210h-5.6v-5.6h-5.6Z"/><polygon class="cls-1" points="8.95 187.6 8.95 193.2 3.35 193.2 3.35 187.6 8.95 187.6 8.95 182 0 182 0 210 3.35 210 3.35 204.4 8.95 204.4 8.95 210 14.55 210 14.55 187.6 8.95 187.6"/><polygon class="cls-1" points="1008 210 1008 182 999.15 182 999.15 187.6 1004.75 187.6 1004.75 193.2 999.15 193.2 999.15 187.6 993.55 187.6 993.55 210 999.15 210 999.15 204.4 1004.75 204.4 1004.75 210 1008 210"/></g><g id="Row03"><path class="cls-1" d="M24.5,148.4H18.9v-5.6H13.3V126h28v16.8H35.7v5.6H30.1v-5.6H24.5ZM18.9,154H13.3v-5.6h5.6Zm0-16.8h5.6v-5.6H18.9Zm11.2-5.6v5.6h5.6v-5.6ZM35.7,154v-5.6h5.59V154Z"/><path class="cls-1" d="M74.9,148.4H69.3V131.6h5.6V126h5.6v5.6h5.6V126h5.6v5.6h5.6v16.8H91.7V154H86.1v-5.6H80.5V154H74.9Zm0-5.6h5.6v-5.6H74.9Zm11.2-5.6v5.6h5.6v-5.6Z"/><path class="cls-1" d="M136.5,148.4h-5.61v-5.6H125.3v-5.6h5.59v-5.6h5.61V126h5.59v5.6h5.61v5.6h5.59v5.6H147.7v5.6h-5.61V154H136.5Zm-5.61,5.6H125.3v-5.6h5.59Zm16.81,0v-5.6h5.59V154Z"/><path class="cls-1" d="M209.3,154h-5.6v-5.6h-5.6V154h-5.6v-5.6h-5.6V154h-5.6v-5.6h5.6v-5.6h-5.6V131.6h5.6V126h16.8v5.6h5.6v11.2h-5.6v5.6h5.6Zm-22.4-22.4v5.6h5.6v-5.6Zm16.8,0h-5.6v5.6h5.6Z"/><path class="cls-1" d="M248.5,154H237.3v-5.6h5.59v-5.6H237.3v-5.6h5.59v-5.6H237.3V126h11.2v5.6h5.59V126h11.2v5.6h-5.6v5.6h5.6v5.6h-5.6v5.6h5.6V154h-11.2v-5.6H248.5Zm-5.61-16.8v5.6h5.61v-5.6Zm16.8,5.6v-5.6h-5.6v5.6Z"/><path class="cls-1" d="M304.5,148.4h-5.61v-5.6H293.3V126h28v16.8H315.7v5.6h-5.61v-5.6H304.5Zm-5.61,5.6H293.3v-5.6h5.59Zm0-16.8h5.61v-5.6h-5.61Zm11.2-5.6v5.6h5.61v-5.6ZM315.7,154v-5.6h5.59V154Z"/><path class="cls-1" d="M354.9,148.4h-5.6V131.6h5.6V126h16.8v5.6h5.6v16.8h-5.6V154h-5.6v-5.6h-5.6V154h-5.6Zm0-5.6h5.6v-5.6h-5.6Zm16.8-5.6h-5.6v5.6h5.6Z"/><path class="cls-1" d="M410.89,148.4H405.3V131.6h5.59V126H427.7v5.6h5.59v16.8H427.7V154H410.89Zm16.81,0V131.6H410.89v16.8Z"/><path class="cls-1" d="M466.9,148.4h-5.6V131.6h5.6V126h5.6v5.6h5.59V126h5.61v5.6h5.59v16.8H483.7V154h-5.61v-5.6H472.5V154h-5.6Zm0-5.6h5.6v-5.6h-5.6Zm11.19-5.6v5.6h5.61v-5.6Z"/><path class="cls-1" d="M545.3,154h-28V142.8h5.6V131.6h5.6V126h5.6v5.6h5.6v11.2h5.6Zm-22.4-11.2v5.6h5.6v-5.6Zm16.8,0h-5.6v5.6h5.6Z"/><path class="cls-1" d="M573.3,154V142.8h5.59v-5.6h5.61v-5.6h5.59v5.6h5.61v5.6h5.59V154Zm11.2-28v5.6h-5.61V126Zm11.2,5.6h-5.61V126h5.61Z"/><path class="cls-1" d="M640.5,154H629.3v-5.6h5.6v-5.6h-5.6V126h5.6v5.6h5.6V126h5.6v5.6h5.6V126h5.59v16.8H651.7v5.6h5.59V154H646.1v-5.6h-5.6Zm-5.6-11.2h5.6v-5.6h-5.6Zm16.8,0v-5.6h-5.6v5.6Z"/><path class="cls-1" d="M685.3,154V126h28v28Zm5.6-5.6h16.8V131.6H690.9Z"/><path class="cls-1" d="M746.89,154H741.3V126h5.59Zm11.2-28v5.6h5.61v5.6h5.59v5.6H763.7v5.6h-5.61V154H752.5V126Z"/><path class="cls-1" d="M802.86,126v5.6h-5.6V126Zm0,28h-5.6v-5.6h5.6Zm5.6-22.4v5.6h-5.6v-5.6Zm0,16.8h-5.6v-5.6h5.6Zm5.6-5.6h-5.6v-5.6h5.6Zm5.6-5.6h-5.6v-5.6h5.6Zm-5.6,11.2v-5.6h5.6v5.6Zm11.2-16.8h-5.6V126h5.6Zm-5.6,22.4v-5.6h5.6V154Z"/><path class="cls-1" d="M858.89,148.4H853.3V137.2h11.2v-5.6h5.59v5.6h11.2v11.2h-5.6V154h-5.6v-5.6H864.5V154h-5.61ZM864.5,126v5.6h-5.61V126Zm11.19,5.6h-5.6V126h5.6Z"/><path class="cls-1" d="M914.9,154h-5.6V137.2h5.6v-5.6h5.6V126h5.59v5.6h5.61v5.6h5.59V154H931.7v-5.6h-5.61V154H920.5v-5.6h-5.6Z"/><path class="cls-1" d="M976.5,154H965.3v-5.6h5.6v-5.6h-5.6v-5.6h5.6v-5.6h-5.6V126h11.2v5.6h5.6V126h11.2v5.6h-5.6v5.6h5.6v5.6h-5.6v5.6h5.6V154H982.1v-5.6h-5.6Zm-5.6-16.8v5.6h5.6v-5.6Zm16.8,5.6v-5.6h-5.6v5.6Z"/></g><g id="Row02"><path class="cls-1" d="M41.55,86.8V75.6h11.2V70h5.6v5.6h11.2V86.8H58.35v5.6H64V98H47.15V92.4h5.6V86.8Z"/><path class="cls-1" d="M97.55,86.8V81.2h5.6V75.6h5.6V70h5.6v5.6H120v5.6h5.6v5.6h-11.2v5.6h-5.6V86.8Zm5.6,5.6h5.6V98h-5.6Zm11.2,5.6V92.4H120V98Z"/><path class="cls-1" d="M159.15,92.4h-5.6V75.6h5.6V70H176v5.6h5.6v5.6H176v5.6h5.6v5.6H176V98h-16.8Zm5.6-16.8v5.6h5.6V75.6Z"/><path class="cls-1" d="M209.55,86.8V81.2h16.8V75.6H232v5.6h5.6v5.6H232v5.6h-5.6V86.8ZM226.35,70v5.6h-5.6V70Zm-5.6,22.4h5.6V98h-5.6Z"/><path class="cls-1" d="M282.35,98V92.4H288V86.8h-16.8v5.6h5.6V98h-5.6V92.4h-5.6V75.6h5.6V70H288v5.6h5.6V92.4H288V98Zm-11.2-22.4v5.6h5.6V75.6Zm16.8,0h-5.6v5.6H288Z"/><path class="cls-1" d="M349.55,98h-28V86.8h5.6V75.6h5.6V70h5.6v5.6H344V86.8h5.6ZM344,86.8h-5.6V75.6h-5.6V86.8h-5.6v5.6H344Z"/><path class="cls-1" d="M377.55,98V92.4h5.6V86.8h-5.6V70h28V86.8H400v5.6h5.6V98h-11.2V92.4h-5.6V98Zm5.6-16.8h5.6V75.6h-5.6Zm11.2-5.6v5.6H400V75.6Z"/><path class="cls-1" d="M439.15,92.4h-5.6V81.2h5.6V75.6h5.6V70h5.6v5.6H456v5.6h5.6V92.4H456V98h-5.6V92.4h-5.6V98h-5.6Z"/><path class="cls-1" d="M495.15,98h-5.6V81.2h5.6V75.6h5.6V70h5.6v5.6H512v5.6h5.6V98H512V92.4h-5.6V98h-5.6V92.4h-5.6Z"/><path class="cls-1" d="M943.15,98h-5.6V81.2h5.6V75.6h5.6V70h5.6v5.6H960v5.6h5.6V98H960V92.4h-5.6V98h-5.6V92.4h-5.6Z"/><path class="cls-1" d="M551.15,92.4h-5.6V81.2h5.6V75.6h5.6V70h5.6v5.6H568v5.6h5.6V92.4H568V98h-5.6V92.4h-5.6V98h-5.6Z"/><path class="cls-1" d="M601.55,98V92.4h5.6V86.8h-5.6V70h28V86.8H624v5.6h5.6V98h-11.2V92.4h-5.6V98Zm5.6-16.8h5.6V75.6h-5.6Zm11.2-5.6v5.6H624V75.6Z"/><path class="cls-1" d="M685.55,98h-28V86.8h5.6V75.6h5.6V70h5.6v5.6H680V86.8h5.6ZM680,86.8h-5.6V75.6h-5.6V86.8h-5.6v5.6H680Z"/><path class="cls-1" d="M730.35,98V92.4H736V86.8h-16.8v5.6h5.6V98h-5.6V92.4h-5.6V75.6h5.6V70H736v5.6h5.6V92.4H736V98Zm-11.2-22.4v5.6h5.6V75.6Zm16.8,0h-5.6v5.6H736Z"/><path class="cls-1" d="M769.55,86.8V81.2h16.8V75.6H792v5.6h5.6v5.6H792v5.6h-5.6V86.8ZM786.35,70v5.6h-5.6V70Zm-5.6,22.4h5.6V98h-5.6Z"/><path class="cls-1" d="M831.15,92.4h-5.6V75.6h5.6V70H848v5.6h5.6v5.6H848v5.6h5.6v5.6H848V98h-16.8Zm5.6-16.8v5.6h5.6V75.6Z"/><path class="cls-1" d="M881.55,86.8V81.2h5.6V75.6h5.6V70h5.6v5.6H904v5.6h5.6v5.6h-11.2v5.6h-5.6V86.8Zm5.6,5.6h5.6V98h-5.6Zm11.2,5.6V92.4H904V98Z"/><rect class="cls-1" x="7.95" y="92.4" width="5.6" height="5.6"/><polygon class="cls-1" points="13.55 86.8 13.55 81.2 7.95 81.2 7.95 75.6 2.35 75.6 2.35 70 0 70 0 98 2.35 98 2.35 92.4 7.95 92.4 7.95 86.8 13.55 86.8"/><polygon class="cls-1" points="1008 98 1008 70 1004.75 70 1004.75 75.6 999.15 75.6 999.15 81.2 993.55 81.2 993.55 86.8 999.15 86.8 999.15 92.4 1004.75 92.4 1004.75 98 1008 98"/><rect class="cls-1" x="993.55" y="92.4" width="5.6" height="5.6"/></g><g id="Row01"><path class="cls-1" d="M25.2,36.4H19.6V30.8H14V14h5.6v5.6h5.6V14h5.6v5.6h5.6V14H42V30.8H36.4v5.6H30.8V42H25.2ZM19.6,42H14V36.4h5.6Zm16.8,0V36.4H42V42Z"/><path class="cls-1" d="M70,30.8V25.2H81.2V14h5.6v5.6h5.6v5.6H98v5.6H92.4v5.6H86.8V42H81.2V30.8Z"/><path class="cls-1" d="M131.6,36.4V42H126V19.6h5.6V14h16.8v5.6H154V42h-5.6V36.4h-5.6V42h-5.6V36.4Zm0-16.8v5.6h5.6V19.6Zm16.8,0h-5.6v5.6h5.6Z"/><path class="cls-1" d="M187.6,36.4H182V25.2h11.2V19.6h5.6v5.6H210V36.4h-5.6V42h-5.6V36.4h-5.6V42h-5.6ZM193.2,14v5.6h-5.6V14Zm11.2,5.6h-5.6V14h5.6Z"/><path class="cls-1" d="M243.56,14v5.6H238V14Zm0,28H238V36.4h5.6Zm5.6-22.4v5.6h-5.6V19.6Zm0,16.8h-5.6V30.8h5.6Zm5.6-5.6h-5.6V25.2h5.6Zm5.6-5.6h-5.6V19.6h5.6Zm-5.6,11.2V30.8h5.6v5.6ZM266,19.6h-5.6V14H266ZM260.36,42V36.4H266V42Z"/><path class="cls-1" d="M299.6,42H294V14h5.6Zm11.2-28v5.6h5.6v5.6H322v5.6h-5.6v5.6h-5.6V42h-5.6V14Z"/><path class="cls-1" d="M350,42V14h28V42Zm5.6-5.6h16.8V19.6H355.6Z"/><path class="cls-1" d="M417.2,42H406V36.4h5.6V30.8H406V14h5.6v5.6h5.6V14h5.6v5.6h5.6V14H434V30.8h-5.6v5.6H434V42H422.8V36.4h-5.6Zm-5.6-11.2h5.6V25.2h-5.6Zm16.8,0V25.2h-5.6v5.6Z"/><path class="cls-1" d="M462,42V30.8h5.6V25.2h5.6V19.6h5.6v5.6h5.6v5.6H490V42Zm11.2-28v5.6h-5.6V14Zm11.2,5.6h-5.6V14h5.6Z"/><path class="cls-1" d="M546,42H518V30.8h5.6V19.6h5.6V14h5.6v5.6h5.6V30.8H546ZM523.6,30.8v5.6h5.6V30.8Zm16.8,0h-5.6v5.6h5.6Z"/><path class="cls-1" d="M579.6,36.4H574V19.6h5.6V14h5.6v5.6h5.6V14h5.6v5.6H602V36.4h-5.6V42h-5.6V36.4h-5.6V42h-5.6Zm0-5.6h5.6V25.2h-5.6Zm11.2-5.6v5.6h5.6V25.2Z"/><path class="cls-1" d="M635.6,36.4H630V19.6h5.6V14h16.8v5.6H658V36.4h-5.6V42H635.6Zm16.8,0V19.6H635.6V36.4Z"/><path class="cls-1" d="M691.6,36.4H686V19.6h5.6V14h16.8v5.6H714V36.4h-5.6V42h-5.6V36.4h-5.6V42h-5.6Zm0-5.6h5.6V25.2h-5.6Zm16.8-5.6h-5.6v5.6h5.6Z"/><path class="cls-1" d="M753.2,36.4h-5.6V30.8H742V14h28V30.8h-5.6v5.6h-5.6V30.8h-5.6ZM747.6,42H742V36.4h5.6Zm0-16.8h5.6V19.6h-5.6Zm11.2-5.6v5.6h5.6V19.6ZM764.4,42V36.4H770V42Z"/><path class="cls-1" d="M809.2,42H798V36.4h5.6V30.8H798V25.2h5.6V19.6H798V14h11.2v5.6h5.6V14H826v5.6h-5.6v5.6H826v5.6h-5.6v5.6H826V42H814.8V36.4h-5.6Zm-5.6-16.8v5.6h5.6V25.2Zm16.8,5.6V25.2h-5.6v5.6Z"/><path class="cls-1" d="M882,42h-5.6V36.4h-5.6V42h-5.6V36.4h-5.6V42H854V36.4h5.6V30.8H854V19.6h5.6V14h16.8v5.6H882V30.8h-5.6v5.6H882ZM859.6,19.6v5.6h5.6V19.6Zm16.8,0h-5.6v5.6h5.6Z"/><path class="cls-1" d="M938,42H910V30.8h5.6V19.6h5.6V14h5.6v5.6h5.6V30.8H938ZM915.6,30.8v5.6h5.6V30.8Zm16.8,0h-5.6v5.6h5.6Z"/><path class="cls-1" d="M966,42V36.4h5.6V30.8H966V14h28V30.8h-5.6v5.6H994V42H982.8V36.4h-5.6V42Zm5.6-16.8h5.6V19.6h-5.6Zm11.2-5.6v5.6h5.6V19.6Z"/></g></svg>