<svg xmlns="http://www.w3.org/2000/svg" viewBox="0 0 585 221"><defs><style>.a6fb67cc-be0b-472d-8895-10e362c24d34{fill:#fff946;}.ef06766a-5744-47c2-ba1b-6c58d85e0dbc{fill:#ff8c00;}.f5837eb7-892b-401f-9f81-dd6658d936bb{fill:#ffc518;}.e684be88-9be5-4ae5-acf1-19b165ad8858{fill:#ffd531;}.e1b70d67-3365-4687-936f-b37d38d0ec46{fill:#fff;}</style></defs><title>more_default</title><g id="aefb4d9a-9b01-4b9b-9da2-5840f95b9bc6" data-name="圖層 2"><g id="fd259e02-e2ec-4633-b54f-7f53546fae09" data-name="More"><g id="f5b7c53a-f430-42c3-8e01-07a60e345082" data-name="more_default"><polygon class="a6fb67cc-be0b-472d-8895-10e362c24d34" points="13 52 13 65 13 78 13 91 13 104 13 117 13 130 13 143 13 156 13 169 13 182 26 182 26 169 26 156 26 143 26 130 26 117 26 104 26 91 26 78 26 65 26 52 26 39 13 39 13 52"/><rect class="a6fb67cc-be0b-472d-8895-10e362c24d34" x="26" y="26" width="13" height="13"/><rect class="a6fb67cc-be0b-472d-8895-10e362c24d34" x="39" y="13" width="507" height="13"/><polygon class="ef06766a-5744-47c2-ba1b-6c58d85e0dbc" points="559 39 559 52 559 65 559 78 559 91 559 104 559 117 559 130 559 143 559 156 559 169 559 182 572 182 572 169 572 156 572 143 572 130 572 117 572 104 572 91 572 78 572 65 572 52 572 39 559 39"/><rect class="ef06766a-5744-47c2-ba1b-6c58d85e0dbc" x="546" y="182" width="13" height="13"/><rect class="ef06766a-5744-47c2-ba1b-6c58d85e0dbc" x="39" y="195" width="507" height="13"/><rect class="f5837eb7-892b-401f-9f81-dd6658d936bb" x="13" y="26" width="13" height="13"/><rect class="f5837eb7-892b-401f-9f81-dd6658d936bb" x="559" y="26" width="13" height="13"/><polygon class="f5837eb7-892b-401f-9f81-dd6658d936bb" points="572 39 572 52 572 65 572 78 572 91 572 104 572 117 572 130 572 143 572 156 572 169 572 182 585 182 585 169 585 156 585 143 585 130 585 117 585 104 585 91 585 78 585 65 585 52 585 39 572 39"/><rect class="f5837eb7-892b-401f-9f81-dd6658d936bb" x="39" width="507" height="13"/><rect class="f5837eb7-892b-401f-9f81-dd6658d936bb" x="26" y="13" width="13" height="13"/><rect class="f5837eb7-892b-401f-9f81-dd6658d936bb" x="546" y="13" width="13" height="13"/><rect class="f5837eb7-892b-401f-9f81-dd6658d936bb" x="13" y="182" width="13" height="13"/><rect class="f5837eb7-892b-401f-9f81-dd6658d936bb" x="559" y="182" width="13" height="13"/><rect class="f5837eb7-892b-401f-9f81-dd6658d936bb" x="546" y="195" width="13" height="13"/><polygon class="f5837eb7-892b-401f-9f81-dd6658d936bb" points="13 156 13 143 13 130 13 117 13 104 13 91 13 78 13 65 13 52 13 39 0 39 0 52 0 65 0 78 0 91 0 104 0 117 0 130 0 143 0 156 0 169 0 182 13 182 13 169 13 156"/><rect class="f5837eb7-892b-401f-9f81-dd6658d936bb" x="39" y="208" width="507" height="13"/><rect class="f5837eb7-892b-401f-9f81-dd6658d936bb" x="26" y="195" width="13" height="13"/><polygon class="e684be88-9be5-4ae5-acf1-19b165ad8858" points="39 26 39 39 25.94 39 25.94 52 25.94 65 25.94 78 25.94 91 25.94 104 25.94 117 25.94 130 25.94 143 25.94 156 25.94 169 25.94 182 26 182 26 195 39 195 39 195 546 195 546 182 558.94 182 558.94 169 558.94 156 558.94 143 558.94 130 558.94 117 558.94 104 558.94 91 558.94 78 558.94 65 558.94 52 558.94 39 558.94 26 39 26"/><path class="e1b70d67-3365-4687-936f-b37d38d0ec46" d="M390,73H315v75h30V118h15v30h45V133H390V118h15V73Zm-45,30V88h30v15H345Z"/><polygon class="e1b70d67-3365-4687-936f-b37d38d0ec46" points="465 88 480 88 495 88 510 88 510 73 495 73 480 73 465 73 450 73 435 73 420 73 420 88 420 103 420 118 420 133 420 148 435 148 450 148 465 148 480 148 495 148 510 148 510 133 495 133 480 133 465 133 450 133 450 118 465 118 480 118 495 118 510 118 510 103 495 103 480 103 465 103 450 103 450 88 465 88"/><polygon class="e1b70d67-3365-4687-936f-b37d38d0ec46" points="180 73 165 73 150 73 135 73 120 73 105 73 90 73 75 73 75 88 75 103 75 118 75 133 75 148 90 148 105 148 105 133 105 118 105 103 105 88 120 88 120 103 120 118 120 133 120 148 135 148 150 148 150 133 150 118 150 103 150 88 165 88 165 103 165 118 165 133 165 148 180 148 195 148 195 133 195 118 195 103 195 88 195 73 180 73"/><path class="e1b70d67-3365-4687-936f-b37d38d0ec46" d="M285,73H210v75h90V73Zm-30,60H240V88h30v45Z"/></g></g></g></svg>