<svg xmlns="http://www.w3.org/2000/svg" viewBox="0 0 585 221"><defs><style>.a9b3c355-4b38-45e7-9991-985d21e7494a{fill:#bfbfbf;}.e9483169-7b4c-49c7-add7-f911a5d4e899{fill:#f2f2f2;}.addd2fd2-7c67-4816-baf6-50cc582a0ed2{fill:#e5e5e5;}.a27a51b3-ef9c-4b85-9e16-121bfeaa1cf7{fill:#fff;}.b57f4be7-2598-4dc1-a41f-60b4f645f21d{fill:#ffd531;}.bde8287f-c732-4ca9-a859-b2be862e448c{fill:#fff946;}.abd06b71-6403-4912-a9d5-c728c8439356{fill:#ff8c00;}</style></defs><title>more_hover</title><g id="ae0ae16a-2dcd-4c50-a92c-cd28b07c34d6" data-name="圖層 2"><g id="b7741660-5eca-4a57-b36e-a7b34d9be85e" data-name="More"><g id="eead7dcb-2ee8-41ff-85fb-6b80626e3d6f" data-name="more_hover"><polygon class="a9b3c355-4b38-45e7-9991-985d21e7494a" points="13 52 13 65 13 78 13 91 13 104 13 117 13 130 13 143 13 156 13 169 13 182 26 182 26 169 26 156 26 143 26 130 26 117 26 104 26 91 26 78 26 65 26 52 26 39 13 39 13 52"/><rect class="a9b3c355-4b38-45e7-9991-985d21e7494a" x="26" y="26" width="13" height="13"/><rect class="a9b3c355-4b38-45e7-9991-985d21e7494a" x="39" y="13" width="507" height="13"/><polygon class="e9483169-7b4c-49c7-add7-f911a5d4e899" points="559 39 559 52 559 65 559 78 559 91 559 104 559 117 559 130 559 143 559 156 559 169 559 182 572 182 572 169 572 156 572 143 572 130 572 117 572 104 572 91 572 78 572 65 572 52 572 39 559 39"/><rect class="e9483169-7b4c-49c7-add7-f911a5d4e899" x="546" y="182" width="13" height="13"/><rect class="e9483169-7b4c-49c7-add7-f911a5d4e899" x="39" y="195" width="507" height="13"/><rect class="addd2fd2-7c67-4816-baf6-50cc582a0ed2" x="13" y="26" width="13" height="13"/><rect class="addd2fd2-7c67-4816-baf6-50cc582a0ed2" x="559" y="26" width="13" height="13"/><polygon class="addd2fd2-7c67-4816-baf6-50cc582a0ed2" points="572 39 572 52 572 65 572 78 572 91 572 104 572 117 572 130 572 143 572 156 572 169 572 182 585 182 585 169 585 156 585 143 585 130 585 117 585 104 585 91 585 78 585 65 585 52 585 39 572 39"/><rect class="addd2fd2-7c67-4816-baf6-50cc582a0ed2" x="39" width="507" height="13"/><rect class="addd2fd2-7c67-4816-baf6-50cc582a0ed2" x="26" y="13" width="13" height="13"/><rect class="addd2fd2-7c67-4816-baf6-50cc582a0ed2" x="546" y="13" width="13" height="13"/><rect class="addd2fd2-7c67-4816-baf6-50cc582a0ed2" x="13" y="182" width="13" height="13"/><rect class="addd2fd2-7c67-4816-baf6-50cc582a0ed2" x="559" y="182" width="13" height="13"/><rect class="addd2fd2-7c67-4816-baf6-50cc582a0ed2" x="546" y="195" width="13" height="13"/><polygon class="addd2fd2-7c67-4816-baf6-50cc582a0ed2" points="13 156 13 143 13 130 13 117 13 104 13 91 13 78 13 65 13 52 13 39 0 39 0 52 0 65 0 78 0 91 0 104 0 117 0 130 0 143 0 156 0 169 0 182 13 182 13 169 13 156"/><rect class="addd2fd2-7c67-4816-baf6-50cc582a0ed2" x="39" y="208" width="507" height="13"/><rect class="addd2fd2-7c67-4816-baf6-50cc582a0ed2" x="26" y="195" width="13" height="13"/><polygon class="a27a51b3-ef9c-4b85-9e16-121bfeaa1cf7" points="39 26 39 39 25.94 39 25.94 52 25.94 65 25.94 78 25.94 91 25.94 104 25.94 117 25.94 130 25.94 143 25.94 156 25.94 169 25.94 182 26 182 26 195 39 195 39 195 546 195 546 182 558.94 182 558.94 169 558.94 156 558.94 143 558.94 130 558.94 117 558.94 104 558.94 91 558.94 78 558.94 65 558.94 52 558.94 39 558.94 26 39 26"/><path class="b57f4be7-2598-4dc1-a41f-60b4f645f21d" d="M390.1,73h-75v75h30V118h15v30h45V133h-15V118h15V73Zm-45,30V88h30v15h-30Z"/><polygon class="b57f4be7-2598-4dc1-a41f-60b4f645f21d" points="465.1 87.97 480.1 87.97 495.1 87.97 510.1 87.97 510.1 72.97 495.1 72.97 480.1 72.97 465.1 72.97 450.1 72.97 435.1 72.97 420.1 72.97 420.1 87.97 420.1 102.97 420.1 117.97 420.1 132.97 420.1 147.97 435.1 147.97 450.1 147.97 465.1 147.97 480.1 147.97 495.1 147.97 510.1 147.97 510.1 132.97 495.1 132.97 480.1 132.97 465.1 132.97 450.1 132.97 450.1 117.97 465.1 117.97 480.1 117.97 495.1 117.97 510.1 117.97 510.1 102.97 495.1 102.97 480.1 102.97 465.1 102.97 450.1 102.97 450.1 87.97 465.1 87.97"/><polygon class="b57f4be7-2598-4dc1-a41f-60b4f645f21d" points="180.09 72.97 165.09 72.97 150.09 72.97 135.09 72.97 120.09 72.97 105.09 72.97 90.09 72.97 75.09 72.97 75.09 87.97 75.09 102.97 75.09 117.97 75.09 132.97 75.09 147.97 90.09 147.97 105.09 147.97 105.09 132.97 105.09 117.97 105.09 102.97 105.09 87.97 120.09 87.97 120.09 102.97 120.09 117.97 120.09 132.97 120.09 147.97 135.09 147.97 150.09 147.97 150.09 132.97 150.09 117.97 150.09 102.97 150.09 87.97 165.09 87.97 165.09 102.97 165.09 117.97 165.09 132.97 165.09 147.97 180.09 147.97 195.09 147.97 195.09 132.97 195.09 117.97 195.09 102.97 195.09 87.97 195.09 72.97 180.09 72.97"/><path class="b57f4be7-2598-4dc1-a41f-60b4f645f21d" d="M285.1,73h-75v75h90V73Zm-30,60h-15V88h30v45Z"/><polygon class="bde8287f-c732-4ca9-a859-b2be862e448c" points="74.91 73.03 74.91 88.03 74.91 103.03 89.91 103.03 89.91 88.03 89.91 73.03 74.91 73.03"/><polygon class="bde8287f-c732-4ca9-a859-b2be862e448c" points="209.91 73.03 209.91 88.03 209.91 103.03 224.91 103.03 224.91 88.03 224.91 73.03 209.91 73.03"/><polygon class="bde8287f-c732-4ca9-a859-b2be862e448c" points="314.9 73.03 314.9 88.03 314.9 103.03 329.9 103.03 329.9 88.03 329.9 73.03 314.9 73.03"/><polygon class="bde8287f-c732-4ca9-a859-b2be862e448c" points="419.9 73.03 419.9 88.03 419.9 103.03 434.9 103.03 434.9 88.03 434.9 73.03 419.9 73.03"/><polygon class="abd06b71-6403-4912-a9d5-c728c8439356" points="89.91 103.03 89.91 118.03 89.91 133.03 89.91 148.03 104.91 148.03 104.91 133.03 104.91 118.03 104.91 103.03 104.91 88.03 89.91 88.03 89.91 103.03"/><polygon class="abd06b71-6403-4912-a9d5-c728c8439356" points="134.91 103.03 134.91 118.03 134.91 133.03 134.91 148.03 149.91 148.03 149.91 133.03 149.91 118.03 149.91 103.03 149.91 88.03 134.91 88.03 134.91 103.03"/><polygon class="abd06b71-6403-4912-a9d5-c728c8439356" points="179.91 88.03 179.91 103.03 179.91 118.03 179.91 133.03 179.91 148.03 194.91 148.03 194.91 133.03 194.91 118.03 194.91 103.03 194.91 88.03 179.91 88.03"/><polygon class="abd06b71-6403-4912-a9d5-c728c8439356" points="374.9 133.03 374.9 148.03 389.9 148.03 404.9 148.03 404.9 133.03 389.9 133.03 389.9 118.03 374.9 118.03 374.9 133.03"/><polygon class="abd06b71-6403-4912-a9d5-c728c8439356" points="389.9 88.03 389.9 103.03 389.9 118.03 404.9 118.03 404.9 103.03 404.9 88.03 389.9 88.03"/><polygon class="abd06b71-6403-4912-a9d5-c728c8439356" points="329.9 133.03 329.9 148.03 344.9 148.03 344.9 133.03 344.9 118.03 329.9 118.03 329.9 133.03"/><rect class="abd06b71-6403-4912-a9d5-c728c8439356" x="329.9" y="88.03" width="15" height="15"/><polygon class="abd06b71-6403-4912-a9d5-c728c8439356" points="479.9 133.03 479.9 148.03 494.9 148.03 509.9 148.03 509.9 133.03 494.9 133.03 479.9 133.03"/><polygon class="abd06b71-6403-4912-a9d5-c728c8439356" points="479.9 103.03 479.9 118.03 494.9 118.03 509.9 118.03 509.9 103.03 494.9 103.03 479.9 103.03"/><polygon class="abd06b71-6403-4912-a9d5-c728c8439356" points="494.9 73.03 479.9 73.03 479.9 88.03 494.9 88.03 509.9 88.03 509.9 73.03 494.9 73.03"/><polygon class="abd06b71-6403-4912-a9d5-c728c8439356" points="224.91 103.03 224.91 118.03 224.91 133.03 239.91 133.03 239.91 118.03 239.91 103.03 239.91 88.03 224.91 88.03 224.91 103.03"/><polygon class="abd06b71-6403-4912-a9d5-c728c8439356" points="284.9 88.03 284.9 103.03 284.9 118.03 284.9 133.03 284.9 148.03 299.9 148.03 299.9 133.03 299.9 118.03 299.9 103.03 299.9 88.03 284.9 88.03"/></g></g></g></svg>