<svg xmlns="http://www.w3.org/2000/svg" viewBox="0 0 70 70"><defs><style>.b0565b22-340a-4ecf-9b7b-d78cd13b811c{fill:#bfbfbf;}.e75b66f7-599f-48f4-b9be-249192dad163{fill:#fff;}</style></defs><title>post_UpLft_corner</title><g id="a4054fe8-9af5-4e72-a18e-214f7ccb5a6f" data-name="圖層 2"><g id="f2ee285e-3620-4ebc-9aa0-16ec746ebd17" data-name="Post_UL_Corners"><g id="b90e39ff-8388-4cd6-93e0-0af0335da383" data-name="post_UpLft_corner"><polygon class="b0565b22-340a-4ecf-9b7b-d78cd13b811c" points="30 60 30 70 40 70 40 60 40 50 30 50 30 60"/><rect class="b0565b22-340a-4ecf-9b7b-d78cd13b811c" x="40" y="40" width="10" height="10"/><rect class="b0565b22-340a-4ecf-9b7b-d78cd13b811c" x="50" y="30" width="20" height="10"/><polygon class="e75b66f7-599f-48f4-b9be-249192dad163" points="40 50 40 70 70 70 70 40 60 40 50 40 50 50 40 50"/><polygon class="e75b66f7-599f-48f4-b9be-249192dad163" points="50 0 50 10 30 10 30 20 20 20 20 30 10 30 10 50 0 50 0 70 30 70 30 50 40 50 40 40 50 40 50 30 60 30 70 30 70 0 50 0"/></g></g></g></svg>