<svg xmlns="http://www.w3.org/2000/svg" viewBox="0 0 70 70"><defs><style>.fd76b1cd-43aa-4f2d-99f1-d67f759830bb{fill:#bfbfbf;}.feb2ca1c-0af6-46be-83a0-a073cf069a32{fill:#fff;}</style></defs><title>post_DnRgt_corner</title><g id="b20e2c08-2807-4095-bc5c-30f7c73081ad" data-name="圖層 2"><g id="a196e271-2571-4a84-84aa-4b7aac21cb3f" data-name="Post_UL_Corners"><g id="be902359-df60-439a-bfb8-a7798c000eb5" data-name="post_DnRgt_corner"><polygon class="fd76b1cd-43aa-4f2d-99f1-d67f759830bb" points="40 10 40 0 30 0 30 10 30 20 40 20 40 10"/><rect class="fd76b1cd-43aa-4f2d-99f1-d67f759830bb" x="20" y="20" width="10" height="10"/><rect class="fd76b1cd-43aa-4f2d-99f1-d67f759830bb" y="30" width="20" height="10"/><polygon class="feb2ca1c-0af6-46be-83a0-a073cf069a32" points="30 20 30 0 0 0 0 30 10 30 20 30 20 20 30 20"/><polygon class="feb2ca1c-0af6-46be-83a0-a073cf069a32" points="20 70 20 60 40 60 40 50 50 50 50 40 60 40 60 20 70 20 70 0 40 0 40 20 30 20 30 30 20 30 20 40 10 40 0 40 0 70 20 70"/></g></g></g></svg>