<svg xmlns="http://www.w3.org/2000/svg" viewBox="0 0 70 70"><defs><style>.a7dbc460-779a-4d11-9891-eef798d653d4{fill:#bfbfbf;}.a0bff4ae-d87d-41ad-aa8d-902d91f6f6b0{fill:#fff;}</style></defs><title>post_DnLft_corner</title><g id="bd9dfc3f-713b-46de-b3f6-0679976db64b" data-name="圖層 2"><g id="fd672cfa-8d79-4f22-8e17-4173cf02f2fc" data-name="Post_UL_Corners"><g id="a20bb96e-55b4-4442-954f-4a3493ca2653" data-name="post_DnLft_corner"><polygon class="a7dbc460-779a-4d11-9891-eef798d653d4" points="60 40 70 40 70 30 60 30 50 30 50 40 60 40"/><rect class="a7dbc460-779a-4d11-9891-eef798d653d4" x="40" y="20" width="10" height="10"/><rect class="a7dbc460-779a-4d11-9891-eef798d653d4" x="30" width="10" height="20"/><polygon class="a0bff4ae-d87d-41ad-aa8d-902d91f6f6b0" points="50 30 70 30 70 0 40 0 40 10 40 20 50 20 50 30"/><polygon class="a0bff4ae-d87d-41ad-aa8d-902d91f6f6b0" points="0 20 10 20 10 40 20 40 20 50 30 50 30 60 50 60 50 70 70 70 70 40 50 40 50 30 40 30 40 20 30 20 30 10 30 0 0 0 0 20"/></g></g></g></svg>