<svg xmlns="http://www.w3.org/2000/svg" viewBox="0 0 70 70"><defs><style>.e3d13198-6513-479f-bf78-0b22c096bfc7{fill:#bfbfbf;}.e5fc6adb-90ba-4a43-badb-d32576c8452a{fill:#fff;}</style></defs><title>post_UpRgt_corner</title><g id="aba0ec21-fb98-4fbc-a24a-92a4740e5d47" data-name="圖層 2"><g id="bdbde6da-b242-4c27-a9fe-1ccd9d5fc0c7" data-name="Post_UL_Corners"><g id="b4ce1f75-7842-4f41-b575-3d26f6e88dac" data-name="post_UpRgt_corner"><polygon class="e3d13198-6513-479f-bf78-0b22c096bfc7" points="10 30 0 30 0 40 10 40 20 40 20 30 10 30"/><rect class="e3d13198-6513-479f-bf78-0b22c096bfc7" x="20" y="40" width="10" height="10"/><rect class="e3d13198-6513-479f-bf78-0b22c096bfc7" x="30" y="50" width="10" height="20"/><polygon class="e5fc6adb-90ba-4a43-badb-d32576c8452a" points="20 40 0 40 0 70 30 70 30 60 30 50 20 50 20 40"/><polygon class="e5fc6adb-90ba-4a43-badb-d32576c8452a" points="70 50 60 50 60 30 50 30 50 20 40 20 40 10 20 10 20 0 0 0 0 30 20 30 20 40 30 40 30 50 40 50 40 60 40 70 70 70 70 50"/></g></g></g></svg>