<svg xmlns="http://www.w3.org/2000/svg" viewBox="0 0 174.4 31.96"><defs><style>.cls-1{fill:#d54489;}.cls-2{fill:#ff7bac;}.cls-3{fill:#ff9fac;}.cls-4{fill:#ffff7d;}</style></defs><title>sk_AfterEffects_hover</title><g id="圖層_2" data-name="圖層 2"><g id="AfterEffects"><g id="sk_AfterEffects_hover"><polygon class="cls-1" points="170.4 10.69 170.4 20.69 167.14 20.69 167.14 24.69 163.4 24.69 163.4 28.69 9.4 28.69 9.4 31.96 167.4 31.96 167.4 27.96 170.77 27.96 170.77 23.96 174.4 23.96 174.4 10.69 170.4 10.69"/><polygon class="cls-2" points="167.16 7.27 167.16 3.64 163.45 3.64 163.45 0 7.27 0 7.27 3.64 3.64 3.64 3.64 7.27 0 7.27 0 21.82 3.64 21.82 3.64 25.46 7.27 25.46 7.27 29.09 163.45 29.09 163.45 25.46 167.16 25.46 167.16 21.82 170.8 21.82 170.8 7.27 167.16 7.27"/><polygon class="cls-3" points="163.4 18.82 7.4 18.82 7.4 22.46 10.4 22.46 10.4 25.96 160.4 25.96 160.4 22.46 163.4 22.46 163.4 18.82"/><polygon class="cls-3" points="22.4 4.32 11.14 4.32 11.14 7.32 8.14 7.32 8.14 10.96 11.77 10.96 11.77 7.96 22.4 7.96 22.4 4.32"/><path class="cls-4" d="M16.4,10.44V7.57h5.75v2.87H25v11.5H22.15V19.07H16.4v2.87H13.53V10.44Zm5.75,5.75V10.44H16.4v5.75Z"/><path class="cls-4" d="M33.65,10.44v2.88h2.88v2.87H33.65v5.75H30.78V16.19H27.9V13.32h2.88V10.44Zm2.88,0H33.65V7.57h2.88Z"/><path class="cls-4" d="M45.15,10.44H48v2.88H45.15v5.75H42.28V13.32H39.4V10.44h2.88V7.57h2.87Zm0,11.5V19.07H48v2.87Z"/><path class="cls-4" d="M53.78,21.94V19.07H50.9V13.32h2.88V10.44h5.75v2.88H62.4v2.87H56.65v2.88h2.88v2.87Zm2.87-5.75V13.32H53.78v2.87Z"/><path class="cls-4" d="M68.16,21.94H65.28V10.44h2.88v2.88H71v2.87H68.16Zm5.75-8.62H71V10.44h2.88Z"/><path class="cls-4" d="M88.28,21.94V7.57h8.63v2.87H91.16v2.88h5.75v2.87H91.16v2.88h5.75v2.87Z"/><path class="cls-4" d="M105.53,10.44v2.88h2.88v2.87h-2.88v5.75h-2.87V16.19H99.78V13.32h2.88V10.44Zm2.88,0h-2.88V7.57h2.88Z"/><path class="cls-4" d="M117,10.44v2.88h2.88v2.87H117v5.75h-2.87V16.19h-2.88V13.32h2.88V10.44Zm2.88,0H117V7.57h2.88Z"/><path class="cls-4" d="M125.66,21.94V19.07h-2.87V13.32h2.87V10.44h5.75v2.88h2.88v2.87h-5.75v2.88h2.87v2.87Zm2.88-5.75V13.32h-2.88v2.87Z"/><path class="cls-4" d="M140,19.07h-2.88V13.32H140Zm0-5.75V10.44h5.75v2.88Zm0,8.62V19.07h5.75v2.87Z"/><path class="cls-4" d="M154.41,10.44h2.88v2.88h-2.88v5.75h-2.87V13.32h-2.88V10.44h2.88V7.57h2.87Zm0,11.5V19.07h2.88v2.87Z"/></g></g></g></svg>