<svg xmlns="http://www.w3.org/2000/svg" viewBox="0 0 56.4 31.96"><defs><style>.cls-1{fill:#d54489;}.cls-2{fill:#ff7bac;}.cls-3{fill:#ff9fac;}.cls-4{fill:#ffff7d;}</style></defs><title>sk_Csharp_hover</title><g id="圖層_2" data-name="圖層 2"><g id="Csharp"><g id="sk_Csharp_hover"><polygon class="cls-1" points="52.4 10.69 52.4 20.69 49.14 20.69 49.14 24.69 45.4 24.69 45.4 28.69 9.4 28.69 9.4 31.96 49.4 31.96 49.4 27.96 52.77 27.96 52.77 23.96 56.4 23.96 56.4 10.69 52.4 10.69"/><polygon class="cls-2" points="49.16 7.27 49.16 3.64 45.45 3.64 45.45 0 7.27 0 7.27 3.64 3.64 3.64 3.64 7.27 0 7.27 0 21.82 3.64 21.82 3.64 25.46 7.27 25.46 7.27 29.09 45.45 29.09 45.45 25.46 49.16 25.46 49.16 21.82 52.8 21.82 52.8 7.27 49.16 7.27"/><polygon class="cls-3" points="45.4 18.82 7.4 18.82 7.4 22.46 10.4 22.46 10.4 25.96 42.4 25.96 42.4 22.46 45.4 22.46 45.4 18.82"/><polygon class="cls-3" points="22.4 4.32 11.14 4.32 11.14 7.32 8.14 7.32 8.14 10.96 11.77 10.96 11.77 7.96 22.4 7.96 22.4 4.32"/><path class="cls-4" d="M14.4,19.07H11.53V10.44H14.4Zm0-8.63V7.57h5.75v2.87Zm0,11.5V19.07h5.75v2.87Z"/><path class="cls-4" d="M34.53,13.32v2.87H37.4v2.88H34.53v2.87H31.65V19.07H28.78v2.87H25.9V19.07H23V16.19H25.9V13.32H23V10.44H25.9V7.57h2.88v2.87h2.87V7.57h2.88v2.87H37.4v2.88Zm-2.88,0H28.78v2.87h2.87Z"/></g></g></g></svg>