<svg xmlns="http://www.w3.org/2000/svg" viewBox="0 0 62.4 31.96"><defs><style>.cls-1{fill:#d54489;}.cls-2{fill:#ff7bac;}.cls-3{fill:#ff9fac;}.cls-4{fill:#ffff7d;}</style></defs><title>sk_Cpp_hover</title><g id="圖層_2" data-name="圖層 2"><g id="Cpp"><g id="sk_Cpp_hover"><polygon class="cls-1" points="58.4 10.69 58.4 20.69 55.14 20.69 55.14 24.69 51.4 24.69 51.4 28.69 9.4 28.69 9.4 31.96 55.4 31.96 55.4 27.96 58.77 27.96 58.77 23.96 62.4 23.96 62.4 10.69 58.4 10.69"/><polygon class="cls-2" points="55.16 7.27 55.16 3.64 51.45 3.64 51.45 0 7.27 0 7.27 3.64 3.64 3.64 3.64 7.27 0 7.27 0 21.82 3.64 21.82 3.64 25.46 7.27 25.46 7.27 29.09 51.45 29.09 51.45 25.46 55.16 25.46 55.16 21.82 58.8 21.82 58.8 7.27 55.16 7.27"/><polygon class="cls-3" points="51.4 18.82 7.4 18.82 7.4 22.46 10.4 22.46 10.4 25.96 48.4 25.96 48.4 22.46 51.4 22.46 51.4 18.82"/><polygon class="cls-3" points="22.4 4.32 11.14 4.32 11.14 7.32 8.14 7.32 8.14 10.96 11.77 10.96 11.77 7.96 22.4 7.96 22.4 4.32"/><path class="cls-4" d="M16.4,19.07H13.53V10.44H16.4Zm0-8.63V7.57h5.75v2.87Zm0,11.5V19.07h5.75v2.87Z"/><path class="cls-4" d="M27.9,16.19H25V13.32H27.9V10.44h2.88v2.88h2.87v2.87H30.78v2.88H27.9Z"/><path class="cls-4" d="M39.4,16.19H36.53V13.32H39.4V10.44h2.88v2.88h2.87v2.87H42.28v2.88H39.4Z"/></g></g></g></svg>