<svg xmlns="http://www.w3.org/2000/svg" viewBox="0 0 82.4 31.96"><defs><style>.cls-1{fill:#008eb8;}.cls-2{fill:#29abe2;}.cls-3{fill:#00c1ff;}.cls-4{fill:#e6e6e6;}</style></defs><title>sk_CSS3_default</title><g id="圖層_2" data-name="圖層 2"><g id="CSS3"><g id="sk_CSS3_default"><polygon class="cls-1" points="78.4 10.69 78.4 20.69 75.14 20.69 75.14 24.69 71.4 24.69 71.4 28.69 9.4 28.69 9.4 31.96 75.4 31.96 75.4 27.96 78.77 27.96 78.77 23.96 82.4 23.96 82.4 10.69 78.4 10.69"/><polygon class="cls-2" points="75.16 7.27 75.16 3.64 71.45 3.64 71.45 0 7.27 0 7.27 3.64 3.64 3.64 3.64 7.27 0 7.27 0 21.82 3.64 21.82 3.64 25.46 7.27 25.46 7.27 29.09 71.45 29.09 71.45 25.46 75.16 25.46 75.16 21.82 78.8 21.82 78.8 7.27 75.16 7.27"/><polygon class="cls-3" points="71.4 18.82 7.4 18.82 7.4 22.46 10.4 22.46 10.4 25.96 68.4 25.96 68.4 22.46 71.4 22.46 71.4 18.82"/><polygon class="cls-3" points="22.4 4.32 11.14 4.32 11.14 7.32 8.14 7.32 8.14 10.96 11.77 10.96 11.77 7.96 22.4 7.96 22.4 4.32"/><path class="cls-4" d="M16.4,19.07H13.53V10.44H16.4Zm0-8.63V7.57h5.75v2.87Zm0,11.5V19.07h5.75v2.87Z"/><path class="cls-4" d="M25,10.44H27.9v2.88H25Zm8.62,8.63v2.87H25V19.07Zm2.88-11.5v2.87H27.9V7.57ZM27.9,16.19V13.32h5.75v2.87Zm5.75,2.88V16.19h2.88v2.88Z"/><path class="cls-4" d="M39.4,10.44h2.88v2.88H39.4ZM48,19.07v2.87H39.4V19.07ZM50.9,7.57v2.87H42.28V7.57Zm-8.62,8.62V13.32H48v2.87ZM48,19.07V16.19H50.9v2.88Z"/><path class="cls-4" d="M62.4,7.57v2.87H53.78V7.57Zm0,11.5v2.87H53.78V19.07Zm0-5.75v2.87H56.65V13.32Zm0-2.88h2.88v2.88H62.4Zm0,8.63V16.19h2.88v2.88Z"/></g></g></g></svg>