<svg xmlns="http://www.w3.org/2000/svg" viewBox="0 0 97.4 31.96"><defs><style>.cls-1{fill:#008eb8;}.cls-2{fill:#29abe2;}.cls-3{fill:#00c1ff;}.cls-4{fill:#e6e6e6;}</style></defs><title>sk_HTML5_default</title><g id="圖層_2" data-name="圖層 2"><g id="HTML5"><g id="sk_HTML5_default"><polygon class="cls-1" points="93.4 10.69 93.4 20.69 90.14 20.69 90.14 24.69 86.4 24.69 86.4 28.69 9.4 28.69 9.4 31.96 90.4 31.96 90.4 27.96 93.77 27.96 93.77 23.96 97.4 23.96 97.4 10.69 93.4 10.69"/><polygon class="cls-2" points="90.16 7.27 90.16 3.64 86.45 3.64 86.45 0 7.27 0 7.27 3.64 3.64 3.64 3.64 7.27 0 7.27 0 21.82 3.64 21.82 3.64 25.46 7.27 25.46 7.27 29.09 86.45 29.09 86.45 25.46 90.16 25.46 90.16 21.82 93.8 21.82 93.8 7.27 90.16 7.27"/><polygon class="cls-3" points="86.4 18.82 7.4 18.82 7.4 22.46 10.4 22.46 10.4 25.96 83.4 25.96 83.4 22.46 86.4 22.46 86.4 18.82"/><polygon class="cls-3" points="22.4 4.32 11.14 4.32 11.14 7.32 8.14 7.32 8.14 10.96 11.77 10.96 11.77 7.96 22.4 7.96 22.4 4.32"/><path class="cls-4" d="M22.15,7.57H25V21.94H22.15V16.19H16.4v5.75H13.53V7.57H16.4v5.75h5.75Z"/><path class="cls-4" d="M30.78,10.44H27.9V7.57h8.63v2.87H33.65v11.5H30.78Z"/><path class="cls-4" d="M45.15,10.44v2.88H42.28v8.62H39.4V7.57h2.88v2.87Zm0,2.88H48v2.87H45.15ZM50.9,7.57h2.88V21.94H50.9V13.32H48V10.44H50.9Z"/><path class="cls-4" d="M56.66,21.94V7.57h2.87v11.5h5.75v2.87Z"/><path class="cls-4" d="M76.78,13.32v2.87H68.16V7.57h11.5v2.87H71v2.88Zm-8.62,8.62V19.07h8.62v2.87Zm11.5-2.87H76.78V16.19h2.88Z"/></g></g></g></svg>