<svg xmlns="http://www.w3.org/2000/svg" viewBox="0 0 154.4 31.96"><defs><style>.cls-1{fill:#008eb8;}.cls-2{fill:#29abe2;}.cls-3{fill:#00c1ff;}.cls-4{fill:#f2f2f2;}</style></defs><title>sk_Illustrator_default</title><g id="圖層_2" data-name="圖層 2"><g id="Illustrator"><g id="sk_Illustrator_default"><polygon class="cls-1" points="150.4 10.69 150.4 20.69 147.14 20.69 147.14 24.69 143.4 24.69 143.4 28.69 9.4 28.69 9.4 31.96 147.4 31.96 147.4 27.96 150.77 27.96 150.77 23.96 154.4 23.96 154.4 10.69 150.4 10.69"/><polygon class="cls-2" points="147.16 7.27 147.16 3.64 143.45 3.64 143.45 0 7.27 0 7.27 3.64 3.64 3.64 3.64 7.27 0 7.27 0 21.82 3.64 21.82 3.64 25.46 7.27 25.46 7.27 29.09 143.45 29.09 143.45 25.46 147.16 25.46 147.16 21.82 150.8 21.82 150.8 7.27 147.16 7.27"/><polygon class="cls-3" points="143.4 18.82 7.4 18.82 7.4 22.46 10.4 22.46 10.4 25.96 140.4 25.96 140.4 22.46 143.4 22.46 143.4 18.82"/><polygon class="cls-3" points="22.4 4.32 11.14 4.32 11.14 7.32 8.14 7.32 8.14 10.96 11.77 10.96 11.77 7.96 22.4 7.96 22.4 4.32"/><path class="cls-4" d="M19.28,20.07h2.87v2.87H13.53V20.07H16.4V11.44H13.53V8.57h8.62v2.87H19.28Z"/><path class="cls-4" d="M27.9,22.94H25V8.57H27.9Z"/><path class="cls-4" d="M33.65,22.94H30.78V8.57h2.87Z"/><path class="cls-4" d="M39.4,20.07H36.53V11.44H39.4Zm5.75-8.63H48v11.5H39.4V20.07h5.75Z"/><path class="cls-4" d="M62.4,11.44v2.88H56.65v2.87H50.9V14.32h2.88V11.44Zm-5.75,8.63V17.19H62.4v2.88H59.53v2.87H50.9V20.07Z"/><path class="cls-4" d="M71,11.44h2.88v2.88H71v5.75H68.16V14.32H65.28V11.44h2.88V8.57H71Zm0,11.5V20.07h2.88v2.87Z"/><path class="cls-4" d="M79.66,22.94H76.78V11.44h2.88v2.88h2.87v2.87H79.66Zm5.75-8.62H82.53V11.44h2.88Z"/><path class="cls-4" d="M91.16,14.32V11.44h8.62v11.5H91.16V20.07H88.28V14.32Zm0,5.75h5.75V14.32H91.16Z"/><path class="cls-4" d="M108.41,11.44h2.87v2.88h-2.87v5.75h-2.88V14.32h-2.87V11.44h2.87V8.57h2.88Zm0,11.5V20.07h2.87v2.87Z"/><path class="cls-4" d="M117,20.07h-2.87V14.32H117V11.44h5.75v2.88h2.88v5.75h-2.88v2.87H117Zm5.75,0V14.32H117v5.75Z"/><path class="cls-4" d="M131.41,22.94h-2.87V11.44h2.87v2.88h2.88v2.87h-2.88Zm5.75-8.62h-2.87V11.44h2.87Z"/></g></g></g></svg>