<svg xmlns="http://www.w3.org/2000/svg" viewBox="0 0 56.4 31.96"><defs><style>.cls-1{fill:#008eb8;}.cls-2{fill:#29abe2;}.cls-3{fill:#00c1ff;}.cls-4{fill:#e6e6e6;}</style></defs><title>sk_JS_default</title><g id="圖層_2" data-name="圖層 2"><g id="JS"><g id="sk_JS_default"><polygon class="cls-1" points="52.4 10.69 52.4 20.69 49.14 20.69 49.14 24.69 45.4 24.69 45.4 28.69 9.4 28.69 9.4 31.96 49.4 31.96 49.4 27.96 52.77 27.96 52.77 23.96 56.4 23.96 56.4 10.69 52.4 10.69"/><polygon class="cls-2" points="49.16 7.27 49.16 3.64 45.45 3.64 45.45 0 7.27 0 7.27 3.64 3.64 3.64 3.64 7.27 0 7.27 0 21.82 3.64 21.82 3.64 25.46 7.27 25.46 7.27 29.09 45.45 29.09 45.45 25.46 49.16 25.46 49.16 21.82 52.8 21.82 52.8 7.27 49.16 7.27"/><polygon class="cls-3" points="45.4 18.82 7.4 18.82 7.4 22.46 10.4 22.46 10.4 25.96 42.4 25.96 42.4 22.46 45.4 22.46 45.4 18.82"/><polygon class="cls-3" points="22.4 4.32 11.14 4.32 11.14 7.32 8.14 7.32 8.14 10.96 11.77 10.96 11.77 7.96 22.4 7.96 22.4 4.32"/><path class="cls-4" d="M16.4,16.19v2.88H13.53V16.19Zm5.75,2.88v2.87H16.4V19.07ZM25,7.57v11.5H22.15V10.44H19.28V7.57Z"/><path class="cls-4" d="M27.9,10.44h2.88v2.88H27.9Zm8.63,8.63v2.87H27.9V19.07ZM39.4,7.57v2.87H30.78V7.57Zm-8.62,8.62V13.32h5.75v2.87Zm5.75,2.88V16.19H39.4v2.88Z"/></g></g></g></svg>