<svg xmlns="http://www.w3.org/2000/svg" viewBox="0 0 88.4 31.96"><defs><style>.cls-1{fill:#d54489;}.cls-2{fill:#ff7bac;}.cls-3{fill:#ff9fac;}.cls-4{fill:#ffff7d;}</style></defs><title>sk_MAYA_hover</title><g id="圖層_2" data-name="圖層 2"><g id="MAYA"><g id="sk_MAYA_hover"><polygon class="cls-1" points="84.4 10.69 84.4 20.69 81.14 20.69 81.14 24.69 77.4 24.69 77.4 28.69 9.4 28.69 9.4 31.96 81.4 31.96 81.4 27.96 84.77 27.96 84.77 23.96 88.4 23.96 88.4 10.69 84.4 10.69"/><polygon class="cls-2" points="81.16 7.27 81.16 3.64 77.45 3.64 77.45 0 7.27 0 7.27 3.64 3.64 3.64 3.64 7.27 0 7.27 0 21.82 3.64 21.82 3.64 25.46 7.27 25.46 7.27 29.09 77.45 29.09 77.45 25.46 81.16 25.46 81.16 21.82 84.8 21.82 84.8 7.27 81.16 7.27"/><polygon class="cls-3" points="77.4 18.82 7.4 18.82 7.4 22.46 10.4 22.46 10.4 25.96 74.4 25.96 74.4 22.46 77.4 22.46 77.4 18.82"/><polygon class="cls-3" points="22.4 4.32 11.14 4.32 11.14 7.32 8.14 7.32 8.14 10.96 11.77 10.96 11.77 7.96 22.4 7.96 22.4 4.32"/><path class="cls-4" d="M19.28,10.44v2.88H16.4v8.62H13.53V7.57H16.4v2.87Zm0,2.88h2.87v2.87H19.28ZM25,7.57H27.9V21.94H25V13.32H22.15V10.44H25Z"/><path class="cls-4" d="M33.65,10.44V7.57H39.4v2.87h2.88v11.5H39.4V19.07H33.65v2.87H30.78V10.44Zm5.75,5.75V10.44H33.65v5.75Z"/><path class="cls-4" d="M48,13.32H45.15V7.57H48Zm5.75-5.75h2.87v11.5H53.78V16.19H48V13.32h5.75Zm0,11.5v2.87H48V19.07Z"/><path class="cls-4" d="M62.41,10.44V7.57h5.75v2.87H71v11.5H68.16V19.07H62.41v2.87H59.53V10.44Zm5.75,5.75V10.44H62.41v5.75Z"/></g></g></g></svg>