<svg xmlns="http://www.w3.org/2000/svg" viewBox="0 0 183.4 31.96"><defs><style>.cls-1{fill:#d54489;}.cls-2{fill:#ff7bac;}.cls-3{fill:#ff9fac;}.cls-4{fill:#ffff7d;}</style></defs><title>sk_PremierePro_hover</title><g id="圖層_2" data-name="圖層 2"><g id="PremierePro"><g id="sk_PremierePro_hover"><polygon class="cls-1" points="179.4 10.69 179.4 20.69 176.14 20.69 176.14 24.69 172.4 24.69 172.4 28.69 9.4 28.69 9.4 31.96 176.4 31.96 176.4 27.96 179.77 27.96 179.77 23.96 183.4 23.96 183.4 10.69 179.4 10.69"/><polygon class="cls-2" points="176.16 7.27 176.16 3.64 172.45 3.64 172.45 0 7.27 0 7.27 3.64 3.64 3.64 3.64 7.27 0 7.27 0 21.82 3.64 21.82 3.64 25.46 7.27 25.46 7.27 29.09 172.45 29.09 172.45 25.46 176.16 25.46 176.16 21.82 179.8 21.82 179.8 7.27 176.16 7.27"/><polygon class="cls-3" points="172.4 18.82 7.4 18.82 7.4 22.46 10.4 22.46 10.4 25.96 169.4 25.96 169.4 22.46 172.4 22.46 172.4 18.82"/><polygon class="cls-3" points="22.4 4.32 11.14 4.32 11.14 7.32 8.14 7.32 8.14 10.96 11.77 10.96 11.77 7.96 22.4 7.96 22.4 4.32"/><path class="cls-4" d="M22.15,11.44H25v5.75H22.15v2.88H16.4v2.87H13.53V8.57h8.62ZM16.4,17.19h5.75V11.44H16.4Z"/><path class="cls-4" d="M30.78,22.94H27.9V11.44h2.88v2.88h2.87v2.87H30.78Zm5.75-8.62H33.65V11.44h2.88Z"/><path class="cls-4" d="M42.28,22.94V20.07H39.4V14.32h2.88V11.44H48v2.88H50.9v2.87H45.15v2.88H48v2.87Zm2.87-5.75V14.32H42.28v2.87Z"/><path class="cls-4" d="M65.28,11.44v2.88H62.4v8.62H59.53V14.32H56.65v8.62H53.78V11.44Zm0,2.88h2.88v8.62H65.28Z"/><path class="cls-4" d="M73.91,11.44H71V8.57h2.88Zm0,11.5H71V14.32h2.88Z"/><path class="cls-4" d="M79.66,22.94V20.07H76.78V14.32h2.88V11.44h5.75v2.88h2.87v2.87H82.53v2.88h2.88v2.87Zm2.87-5.75V14.32H79.66v2.87Z"/><path class="cls-4" d="M94,22.94H91.16V11.44H94v2.88h2.88v2.87H94Zm5.75-8.62H96.91V11.44h2.87Z"/><path class="cls-4" d="M105.53,22.94V20.07h-2.87V14.32h2.87V11.44h5.75v2.88h2.88v2.87h-5.75v2.88h2.87v2.87Zm2.88-5.75V14.32h-2.88v2.87Z"/><path class="cls-4" d="M137.16,11.44H140v5.75h-2.88v2.88h-5.75v2.87h-2.87V8.57h8.62Zm-5.75,5.75h5.75V11.44h-5.75Z"/><path class="cls-4" d="M145.79,22.94h-2.88V11.44h2.88v2.88h2.87v2.87h-2.87Zm5.75-8.62h-2.88V11.44h2.88Z"/><path class="cls-4" d="M157.29,20.07h-2.88V14.32h2.88V11.44H163v2.88h2.87v5.75H163v2.87h-5.75Zm5.75,0V14.32h-5.75v5.75Z"/></g></g></g></svg>