<svg xmlns="http://www.w3.org/2000/svg" viewBox="0 0 154.4 31.96"><defs><style>.cls-1{fill:#008eb8;}.cls-2{fill:#29abe2;}.cls-3{fill:#00c1ff;}.cls-4{fill:#f2f2f2;}</style></defs><title>sk_Photoshop_default</title><g id="圖層_2" data-name="圖層 2"><g id="Photoshop"><g id="sk_Photoshop_default"><polygon class="cls-1" points="150.4 10.69 150.4 20.69 147.14 20.69 147.14 24.69 143.4 24.69 143.4 28.69 9.4 28.69 9.4 31.96 147.4 31.96 147.4 27.96 150.77 27.96 150.77 23.96 154.4 23.96 154.4 10.69 150.4 10.69"/><polygon class="cls-2" points="147.16 7.27 147.16 3.64 143.45 3.64 143.45 0 7.27 0 7.27 3.64 3.64 3.64 3.64 7.27 0 7.27 0 21.82 3.64 21.82 3.64 25.46 7.27 25.46 7.27 29.09 143.45 29.09 143.45 25.46 147.16 25.46 147.16 21.82 150.8 21.82 150.8 7.27 147.16 7.27"/><polygon class="cls-3" points="143.4 18.82 7.4 18.82 7.4 22.46 10.4 22.46 10.4 25.96 140.4 25.96 140.4 22.46 143.4 22.46 143.4 18.82"/><polygon class="cls-3" points="22.4 4.32 11.14 4.32 11.14 7.32 8.14 7.32 8.14 10.96 11.77 10.96 11.77 7.96 22.4 7.96 22.4 4.32"/><path class="cls-4" d="M22.15,11.44H25v5.75H22.15v2.88H16.4v2.87H13.53V8.57h8.62ZM16.4,17.19h5.75V11.44H16.4Z"/><path class="cls-4" d="M36.53,11.44v2.88H30.78v8.62H27.9V8.57h2.88v2.87Zm0,2.88H39.4v8.62H36.53Z"/><path class="cls-4" d="M45.15,20.07H42.28V14.32h2.87V11.44H50.9v2.88h2.88v5.75H50.9v2.87H45.15Zm5.75,0V14.32H45.15v5.75Z"/><path class="cls-4" d="M62.41,11.44h2.87v2.88H62.41v5.75H59.53V14.32H56.66V11.44h2.87V8.57h2.88Zm0,11.5V20.07h2.87v2.87Z"/><path class="cls-4" d="M71,20.07H68.16V14.32H71V11.44h5.75v2.88h2.88v5.75H76.78v2.87H71Zm5.75,0V14.32H71v5.75Z"/><path class="cls-4" d="M94,11.44v2.88H88.28v2.87H82.53V14.32h2.88V11.44Zm-5.75,8.63V17.19H94v2.88H91.16v2.87H82.53V20.07Z"/><path class="cls-4" d="M105.53,11.44v2.88H99.78v8.62H96.91V8.57h2.87v2.87Zm0,2.88h2.88v8.62h-2.88Z"/><path class="cls-4" d="M114.16,20.07h-2.88V14.32h2.88V11.44h5.75v2.88h2.87v5.75h-2.87v2.87h-5.75Zm5.75,0V14.32h-5.75v5.75Z"/><path class="cls-4" d="M134.29,14.32h2.87v5.75h-2.87v2.87h-5.75v5.75h-2.88V11.44h8.63Zm-5.75,5.75h5.75V14.32h-5.75Z"/></g></g></g></svg>