<svg xmlns="http://www.w3.org/2000/svg" viewBox="0 0 94.4 31.96"><defs><style>.cls-1{fill:#008eb8;}.cls-2{fill:#29abe2;}.cls-3{fill:#00c1ff;}.cls-4{fill:#f2f2f2;}</style></defs><title>sk_Unity_default</title><g id="圖層_2" data-name="圖層 2"><g id="Unity"><g id="sk_Unity_default"><polygon class="cls-1" points="90.4 10.69 90.4 20.69 87.14 20.69 87.14 24.69 83.4 24.69 83.4 28.69 9.4 28.69 9.4 31.96 87.4 31.96 87.4 27.96 90.77 27.96 90.77 23.96 94.4 23.96 94.4 10.69 90.4 10.69"/><polygon class="cls-2" points="87.16 7.27 87.16 3.64 83.45 3.64 83.45 0 7.27 0 7.27 3.64 3.64 3.64 3.64 7.27 0 7.27 0 21.82 3.64 21.82 3.64 25.46 7.27 25.46 7.27 29.09 83.45 29.09 83.45 25.46 87.16 25.46 87.16 21.82 90.8 21.82 90.8 7.27 87.16 7.27"/><polygon class="cls-3" points="83.4 18.82 7.4 18.82 7.4 22.46 10.4 22.46 10.4 25.96 80.4 25.96 80.4 22.46 83.4 22.46 83.4 18.82"/><polygon class="cls-3" points="22.4 4.32 11.14 4.32 11.14 7.32 8.14 7.32 8.14 10.96 11.77 10.96 11.77 7.96 22.4 7.96 22.4 4.32"/><path class="cls-4" d="M16.4,20.07H13.53V8.57H16.4Zm5.75,0v2.87H16.4V20.07Zm0-11.5H25v11.5H22.15Z"/><path class="cls-4" d="M30.78,22.94H27.9V8.57h2.88v2.87h2.87v2.88H30.78Zm2.87-5.75V14.32h2.88V8.57H39.4V22.94H36.53V17.19Z"/><path class="cls-4" d="M48,20.07H50.9v2.87H42.28V20.07h2.87V11.44H42.28V8.57H50.9v2.87H48Z"/><path class="cls-4" d="M56.65,11.44H53.78V8.57H62.4v2.87H59.53v11.5H56.65Z"/><path class="cls-4" d="M68.16,14.32H65.28V8.57h2.88Zm5.75-5.75h2.87v11.5H73.91V17.19H68.16V14.32h5.75Zm0,11.5v2.87H68.16V20.07Z"/></g></g></g></svg>