<svg xmlns="http://www.w3.org/2000/svg" viewBox="0 0 221 221"><defs><style>.a3c4b809-4546-4510-86d4-9ec98d615430{fill:#bfbfbf;}.acc7ab64-6ae9-4f3a-8fb1-763e996d3449{fill:#f2f2f2;}.bb2a5381-cc36-49be-b5ec-a2d6c83ac2f3{fill:#e5e5e5;}.a84e0904-8363-407f-89d0-9dea37994022{fill:#fff;}.a38d77a9-fa33-4fcf-8b8e-ff897df9c6bf{fill:#d4145a;}.bf834fca-cb85-40e9-bb6b-1e3099ccd7da{fill:#3fa9f5;}.bb04784e-05bb-4ca0-9223-5f409d73d440{fill:#1a1a1a;}.bb5a81c3-b67f-49e8-aa8e-01c5626209ea{fill:#ccc;}.eabb53ec-e1d8-4550-beca-e53a5759b5c7{fill:gray;}</style></defs><title>sns_Play_hover</title><g id="acb36a58-64c1-4e33-a2c5-7d907c740e41" data-name="圖層 2"><g id="a3fe586f-0178-4f72-b820-1ef52e48a182" data-name="Play"><g id="be9452c8-f6a8-4389-b25a-7d023b06a16b" data-name="sns_Play_hover"><g id="b6087305-3155-481c-a30f-3360435d48d0" data-name="sns_Vimeo_hover"><polygon class="a3c4b809-4546-4510-86d4-9ec98d615430" points="13 52 13 65 13 78 13 91 13 104 13 117 13 130 13 143 13 156 13 169 13 182 26 182 26 169 26 156 26 143 26 130 26 117 26 104 26 91 26 78 26 65 26 52 26 39 13 39 13 52"/><rect class="a3c4b809-4546-4510-86d4-9ec98d615430" x="26" y="26" width="13" height="13"/><polygon class="a3c4b809-4546-4510-86d4-9ec98d615430" points="169 13 156 13 143 13 130 13 117 13 104 13 91 13 78 13 65 13 52 13 39 13 39 26 52 26 65 26 78 26 91 26 104 26 117 26 130 26 143 26 156 26 169 26 182 26 182 13 169 13"/><polygon class="acc7ab64-6ae9-4f3a-8fb1-763e996d3449" points="195 39 195 52 195 65 195 78 195 91 195 104 195 117 195 130 195 143 195 156 195 169 195 182 208 182 208 169 208 156 208 143 208 130 208 117 208 104 208 91 208 78 208 65 208 52 208 39 195 39"/><rect class="acc7ab64-6ae9-4f3a-8fb1-763e996d3449" x="182" y="182" width="13" height="13"/><polygon class="acc7ab64-6ae9-4f3a-8fb1-763e996d3449" points="156 195 143 195 130 195 117 195 104 195 91 195 78 195 65 195 52 195 39 195 26 195 26 208 39 208 52 208 65 208 78 208 91 208 104 208 117 208 130 208 143 208 156 208 169 208 182 208 182 195 169 195 156 195"/><rect class="bb2a5381-cc36-49be-b5ec-a2d6c83ac2f3" x="13" y="26" width="13" height="13"/><rect class="bb2a5381-cc36-49be-b5ec-a2d6c83ac2f3" x="195" y="26" width="13" height="13"/><polygon class="bb2a5381-cc36-49be-b5ec-a2d6c83ac2f3" points="208 39 208 52 208 65 208 78 208 91 208 104 208 117 208 130 208 143 208 156 208 169 208 182 221 182 221 169 221 156 221 143 221 130 221 117 221 104 221 91 221 78 221 65 221 52 221 39 208 39"/><rect class="bb2a5381-cc36-49be-b5ec-a2d6c83ac2f3" x="26" y="13" width="13" height="13"/><polygon class="bb2a5381-cc36-49be-b5ec-a2d6c83ac2f3" points="65 13 78 13 91 13 104 13 117 13 130 13 143 13 156 13 169 13 182 13 182 0 169 0 156 0 143 0 130 0 117 0 104 0 91 0 78 0 65 0 52 0 39 0 39 13 52 13 65 13"/><rect class="bb2a5381-cc36-49be-b5ec-a2d6c83ac2f3" x="182" y="13" width="13" height="13"/><polygon class="bb2a5381-cc36-49be-b5ec-a2d6c83ac2f3" points="13 156 13 143 13 130 13 117 13 104 13 91 13 78 13 65 13 52 13 39 0 39 0 52 0 65 0 78 0 91 0 104 0 117 0 130 0 143 0 156 0 169 0 182 13 182 13 169 13 156"/><rect class="bb2a5381-cc36-49be-b5ec-a2d6c83ac2f3" x="13" y="182" width="13" height="13"/><rect class="bb2a5381-cc36-49be-b5ec-a2d6c83ac2f3" x="195" y="182" width="13" height="13"/><rect class="bb2a5381-cc36-49be-b5ec-a2d6c83ac2f3" x="182" y="195" width="13" height="13"/><polygon class="bb2a5381-cc36-49be-b5ec-a2d6c83ac2f3" points="156 208 143 208 130 208 117 208 104 208 91 208 78 208 65 208 52 208 39 208 39 221 52 221 65 221 78 221 91 221 104 221 117 221 130 221 143 221 156 221 169 221 182 221 182 208 169 208 156 208"/><rect class="bb2a5381-cc36-49be-b5ec-a2d6c83ac2f3" x="26" y="195" width="13" height="13"/><polygon class="a84e0904-8363-407f-89d0-9dea37994022" points="182 26 169 26 156 26 143 26 130 26 117 26 104 26 91 26 78 26 65 26 52 26 39 26 39 39 26 39 26 52 26 65 26 78 26 91 26 104 26 117 26 130 26 143 26 156 26 169 26 182 26 195 39 195 52 195 65 195 78 195 91 195 104 195 117 195 130 195 143 195 156 195 169 195 182 195 182 182 195 182 195 169 195 156 195 143 195 130 195 117 195 104 195 91 195 78 195 65 195 52 195 39 195 26 182 26"/></g><polygon class="a84e0904-8363-407f-89d0-9dea37994022" points="162.5 91 162.5 78 149.5 78 149.5 65 136.5 65 123.5 65 110.5 65 97.5 65 84.5 65 71.5 65 71.5 78 58.5 78 58.5 91 45.5 91 45.5 104 45.5 117 45.5 130 45.5 143 58.5 143 58.5 156 71.5 156 84.5 156 84.5 143 97.5 143 97.5 130 110.5 130 123.5 130 123.5 143 136.5 143 136.5 156 149.5 156 162.5 156 162.5 143 175.5 143 175.5 130 175.5 117 175.5 104 175.5 91 162.5 91"/><rect class="a38d77a9-fa33-4fcf-8b8e-ff897df9c6bf" x="123.5" y="104" width="13" height="13"/><rect class="bf834fca-cb85-40e9-bb6b-1e3099ccd7da" x="149.5" y="104" width="13" height="13"/><polygon class="bb04784e-05bb-4ca0-9223-5f409d73d440" points="84.5 104 84.5 91 71.5 91 71.5 104 58.5 104 58.5 117 71.5 117 71.5 130 84.5 130 84.5 117 97.5 117 97.5 104 84.5 104"/><polygon class="bb5a81c3-b67f-49e8-aa8e-01c5626209ea" points="45.5 97.5 45.5 104 45.5 110.5 45.5 117 58.5 117 58.5 110.5 58.5 104 58.5 97.5 58.5 91 45.5 91 45.5 97.5"/><rect class="bb5a81c3-b67f-49e8-aa8e-01c5626209ea" x="58.5" y="78" width="13" height="13"/><rect class="bb5a81c3-b67f-49e8-aa8e-01c5626209ea" x="71.5" y="65" width="78" height="13"/><polygon class="bb5a81c3-b67f-49e8-aa8e-01c5626209ea" points="162.5 91 162.5 104 162.5 117 175.5 117 175.5 104 175.5 91 162.5 91"/><rect class="bb5a81c3-b67f-49e8-aa8e-01c5626209ea" x="149.5" y="78" width="13" height="13"/><rect class="eabb53ec-e1d8-4550-beca-e53a5759b5c7" x="84.5" y="130" width="13" height="13"/><polygon class="eabb53ec-e1d8-4550-beca-e53a5759b5c7" points="58.5 143 58.5 156 71.5 156 84.5 156 84.5 143 71.5 143 58.5 143"/><polygon class="eabb53ec-e1d8-4550-beca-e53a5759b5c7" points="58.5 117 45.5 117 45.5 130 45.5 143 58.5 143 58.5 130 58.5 117"/><polygon class="eabb53ec-e1d8-4550-beca-e53a5759b5c7" points="110.5 117 97.5 117 97.5 130 110.5 130 123.5 130 123.5 117 110.5 117"/><rect class="eabb53ec-e1d8-4550-beca-e53a5759b5c7" x="123.5" y="130" width="13" height="13"/><polygon class="eabb53ec-e1d8-4550-beca-e53a5759b5c7" points="136.5 143 136.5 156 149.5 156 162.5 156 162.5 143 149.5 143 136.5 143"/><polygon class="eabb53ec-e1d8-4550-beca-e53a5759b5c7" points="162.5 117 162.5 130 162.5 143 175.5 143 175.5 130 175.5 117 162.5 117"/></g></g></g></svg>