<svg xmlns="http://www.w3.org/2000/svg" viewBox="0 0 221 221"><defs><style>.cls-1{fill:#ff9a32;}.cls-2{fill:#af4a0b;}.cls-3{fill:#d15403;}.cls-4{fill:#ff6500;}.cls-5{fill:#fff;}</style></defs><title>sns_Email_default</title><g id="圖層_2" data-name="圖層 2"><g id="Email"><g id="sns_Email_default"><polygon class="cls-1" points="13 52 13 65 13 78 13 91 13 104 13 117 13 130 13 143 13 156 13 169 13 182 26 182 26 169 26 156 26 143 26 130 26 117 26 104 26 91 26 78 26 65 26 52 26 39 13 39 13 52"/><rect class="cls-1" x="26" y="26" width="13" height="13"/><polygon class="cls-1" points="169 13 156 13 143 13 130 13 117 13 104 13 91 13 78 13 65 13 52 13 39 13 39 26 52 26 65 26 78 26 91 26 104 26 117 26 130 26 143 26 156 26 169 26 182 26 182 13 169 13"/><polygon class="cls-2" points="195 39 195 52 195 65 195 78 195 91 195 104 195 117 195 130 195 143 195 156 195 169 195 182 208 182 208 169 208 156 208 143 208 130 208 117 208 104 208 91 208 78 208 65 208 52 208 39 195 39"/><rect class="cls-2" x="182" y="182" width="13" height="13"/><polygon class="cls-2" points="156 195 143 195 130 195 117 195 104 195 91 195 78 195 65 195 52 195 39 195 26 195 26 208 39 208 52 208 65 208 78 208 91 208 104 208 117 208 130 208 143 208 156 208 169 208 182 208 182 195 169 195 156 195"/><rect class="cls-3" x="13" y="26" width="13" height="13"/><rect class="cls-3" x="195" y="26" width="13" height="13"/><polygon class="cls-3" points="208 39 208 52 208 65 208 78 208 91 208 104 208 117 208 130 208 143 208 156 208 169 208 182 221 182 221 169 221 156 221 143 221 130 221 117 221 104 221 91 221 78 221 65 221 52 221 39 208 39"/><rect class="cls-3" x="26" y="13" width="13" height="13"/><polygon class="cls-3" points="65 13 78 13 91 13 104 13 117 13 130 13 143 13 156 13 169 13 182 13 182 0 169 0 156 0 143 0 130 0 117 0 104 0 91 0 78 0 65 0 52 0 39 0 39 13 52 13 65 13"/><rect class="cls-3" x="182" y="13" width="13" height="13"/><polygon class="cls-3" points="13 156 13 143 13 130 13 117 13 104 13 91 13 78 13 65 13 52 13 39 0 39 0 52 0 65 0 78 0 91 0 104 0 117 0 130 0 143 0 156 0 169 0 182 13 182 13 169 13 156"/><rect class="cls-3" x="13" y="182" width="13" height="13"/><rect class="cls-3" x="195" y="182" width="13" height="13"/><rect class="cls-3" x="182" y="195" width="13" height="13"/><polygon class="cls-3" points="156 208 143 208 130 208 117 208 104 208 91 208 78 208 65 208 52 208 39 208 39 221 52 221 65 221 78 221 91 221 104 221 117 221 130 221 143 221 156 221 169 221 182 221 182 208 169 208 156 208"/><rect class="cls-3" x="26" y="195" width="13" height="13"/><polygon class="cls-4" points="182 26 169 26 156 26 143 26 130 26 117 26 104 26 91 26 78 26 65 26 52 26 39 26 39 39 26 39 26 52 26 65 26 78 26 91 26 104 26 117 26 130 26 143 26 156 26 169 26 182 26 195 39 195 52 195 65 195 78 195 91 195 104 195 117 195 130 195 143 195 156 195 169 195 182 195 182 182 195 182 195 169 195 156 195 143 195 130 195 117 195 104 195 91 195 78 195 65 195 52 195 39 195 26 182 26"/><polygon class="cls-5" points="71.5 84.5 84.5 84.5 84.5 97.5 97.5 97.5 97.5 110.5 110.5 110.5 123.5 110.5 123.5 97.5 136.5 97.5 136.5 84.5 149.5 84.5 149.5 71.5 162.5 71.5 162.5 58.5 149.5 58.5 136.5 58.5 123.5 58.5 110.5 58.5 97.5 58.5 84.5 58.5 71.5 58.5 58.5 58.5 58.5 71.5 71.5 71.5 71.5 84.5"/><polygon class="cls-5" points="162.5 71.5 162.5 84.5 149.5 84.5 149.5 97.5 136.5 97.5 136.5 110.5 123.5 110.5 123.5 123.5 136.5 123.5 136.5 136.5 149.5 136.5 149.5 149.5 136.5 149.5 136.5 136.5 123.5 136.5 123.5 123.5 110.5 123.5 97.5 123.5 97.5 136.5 84.5 136.5 84.5 149.5 71.5 149.5 71.5 136.5 84.5 136.5 84.5 123.5 97.5 123.5 97.5 110.5 84.5 110.5 84.5 97.5 71.5 97.5 71.5 84.5 58.5 84.5 58.5 71.5 45.5 71.5 45.5 84.5 45.5 97.5 45.5 110.5 45.5 123.5 45.5 136.5 45.5 149.5 58.5 149.5 58.5 162.5 71.5 162.5 84.5 162.5 97.5 162.5 110.5 162.5 123.5 162.5 136.5 162.5 149.5 162.5 162.5 162.5 162.5 149.5 175.5 149.5 175.5 136.5 175.5 123.5 175.5 110.5 175.5 97.5 175.5 84.5 175.5 71.5 162.5 71.5"/></g></g></g></svg>