<svg xmlns="http://www.w3.org/2000/svg" viewBox="0 0 221 221"><defs><style>.cls-1{fill:#bfbfbf;}.cls-2{fill:#f2f2f2;}.cls-3{fill:#e5e5e5;}.cls-4{fill:#fff;}.cls-5{fill:#4fcaf3;}.cls-6{fill:#198aac;}.cls-7{fill:#8ae4fd;}</style></defs><title>sns_Vimeo_hover</title><g id="圖層_2" data-name="圖層 2"><g id="Vimeo"><g id="sns_Vimeo_hover"><polygon class="cls-1" points="13 52 13 65 13 78 13 91 13 104 13 117 13 130 13 143 13 156 13 169 13 182 26 182 26 169 26 156 26 143 26 130 26 117 26 104 26 91 26 78 26 65 26 52 26 39 13 39 13 52"/><rect class="cls-1" x="26" y="26" width="13" height="13"/><polygon class="cls-1" points="169 13 156 13 143 13 130 13 117 13 104 13 91 13 78 13 65 13 52 13 39 13 39 26 52 26 65 26 78 26 91 26 104 26 117 26 130 26 143 26 156 26 169 26 182 26 182 13 169 13"/><polygon class="cls-2" points="195 39 195 52 195 65 195 78 195 91 195 104 195 117 195 130 195 143 195 156 195 169 195 182 208 182 208 169 208 156 208 143 208 130 208 117 208 104 208 91 208 78 208 65 208 52 208 39 195 39"/><rect class="cls-2" x="182" y="182" width="13" height="13"/><polygon class="cls-2" points="156 195 143 195 130 195 117 195 104 195 91 195 78 195 65 195 52 195 39 195 26 195 26 208 39 208 52 208 65 208 78 208 91 208 104 208 117 208 130 208 143 208 156 208 169 208 182 208 182 195 169 195 156 195"/><rect class="cls-3" x="13" y="26" width="13" height="13"/><rect class="cls-3" x="195" y="26" width="13" height="13"/><polygon class="cls-3" points="208 39 208 52 208 65 208 78 208 91 208 104 208 117 208 130 208 143 208 156 208 169 208 182 221 182 221 169 221 156 221 143 221 130 221 117 221 104 221 91 221 78 221 65 221 52 221 39 208 39"/><rect class="cls-3" x="26" y="13" width="13" height="13"/><polygon class="cls-3" points="65 13 78 13 91 13 104 13 117 13 130 13 143 13 156 13 169 13 182 13 182 0 169 0 156 0 143 0 130 0 117 0 104 0 91 0 78 0 65 0 52 0 39 0 39 13 52 13 65 13"/><rect class="cls-3" x="182" y="13" width="13" height="13"/><polygon class="cls-3" points="13 156 13 143 13 130 13 117 13 104 13 91 13 78 13 65 13 52 13 39 0 39 0 52 0 65 0 78 0 91 0 104 0 117 0 130 0 143 0 156 0 169 0 182 13 182 13 169 13 156"/><rect class="cls-3" x="13" y="182" width="13" height="13"/><rect class="cls-3" x="195" y="182" width="13" height="13"/><rect class="cls-3" x="182" y="195" width="13" height="13"/><polygon class="cls-3" points="156 208 143 208 130 208 117 208 104 208 91 208 78 208 65 208 52 208 39 208 39 221 52 221 65 221 78 221 91 221 104 221 117 221 130 221 143 221 156 221 169 221 182 221 182 208 169 208 156 208"/><rect class="cls-3" x="26" y="195" width="13" height="13"/><polygon class="cls-4" points="182 26 169 26 156 26 143 26 130 26 117 26 104 26 91 26 78 26 65 26 52 26 39 26 39 39 26 39 26 52 26 65 26 78 26 91 26 104 26 117 26 130 26 143 26 156 26 169 26 182 26 195 39 195 52 195 65 195 78 195 91 195 104 195 117 195 130 195 143 195 156 195 169 195 182 195 182 182 195 182 195 169 195 156 195 143 195 130 195 117 195 104 195 91 195 78 195 65 195 52 195 39 195 26 182 26"/><polygon class="cls-5" points="156 72 156 59 143 59 130 59 130 72 117 72 117 85 130 85 143 85 143 98 130 98 130 111 117 111 117 124 117 137 104 137 104 150 91 150 91 137 91 124 104 124 104 111 104 98 104 85 104 72 91 72 91 59 78 59 65 59 65 72 52 72 52 85 65 85 78 85 78 98 65 98 65 111 65 124 65 137 65 150 78 150 78 163 91 163 104 163 117 163 130 163 130 150 143 150 143 137 156 137 156 124 156 111 169 111 169 98 169 85 169 72 156 72"/><polygon class="cls-6" points="104 150 91 150 91 163 104 163 117 163 130 163 130 150 117 150 104 150"/><rect class="cls-6" x="78" y="137" width="13" height="13"/><polygon class="cls-6" points="104 111 104 98 104 85 104 72 91 72 91 85 91 98 91 111 91 124 104 124 104 111"/><rect class="cls-6" x="130" y="137" width="13" height="13"/><polygon class="cls-6" points="143 124 143 137 156 137 156 124 156 111 143 111 143 124"/><polygon class="cls-6" points="156 72 156 85 156 98 156 111 169 111 169 98 169 85 169 72 156 72"/><rect class="cls-7" x="52" y="72" width="13" height="13"/><polygon class="cls-7" points="65 111 65 124 78 124 78 111 78 98 65 98 65 111"/><polygon class="cls-7" points="117 124 117 137 130 137 130 124 130 111 117 111 117 124"/><rect class="cls-7" x="130" y="98" width="13" height="13"/><rect class="cls-7" x="104" y="137" width="13" height="13"/><polygon class="cls-7" points="65 59 65 72 78 72 91 72 91 59 78 59 65 59"/><rect class="cls-7" x="117" y="72" width="13" height="13"/><polygon class="cls-7" points="143 59 130 59 130 72 143 72 156 72 156 59 143 59"/></g></g></g></svg>