<svg xmlns="http://www.w3.org/2000/svg" viewBox="0 0 221 221"><defs><style>.cls-1{fill:#bfbfbf;}.cls-2{fill:#f2f2f2;}.cls-3{fill:#e5e5e5;}.cls-4{fill:#fff;}.cls-5{fill:#ff6500;}.cls-6{fill:#d15403;}.cls-7{fill:#ff9a32;}</style></defs><title>sns_Email_hover</title><g id="圖層_2" data-name="圖層 2"><g id="Email"><g id="sns_Email_hover"><polygon class="cls-1" points="13 52 13 65 13 78 13 91 13 104 13 117 13 130 13 143 13 156 13 169 13 182 26 182 26 169 26 156 26 143 26 130 26 117 26 104 26 91 26 78 26 65 26 52 26 39 13 39 13 52"/><rect class="cls-1" x="26" y="26" width="13" height="13"/><polygon class="cls-1" points="169 13 156 13 143 13 130 13 117 13 104 13 91 13 78 13 65 13 52 13 39 13 39 26 52 26 65 26 78 26 91 26 104 26 117 26 130 26 143 26 156 26 169 26 182 26 182 13 169 13"/><polygon class="cls-2" points="195 39 195 52 195 65 195 78 195 91 195 104 195 117 195 130 195 143 195 156 195 169 195 182 208 182 208 169 208 156 208 143 208 130 208 117 208 104 208 91 208 78 208 65 208 52 208 39 195 39"/><rect class="cls-2" x="182" y="182" width="13" height="13"/><polygon class="cls-2" points="156 195 143 195 130 195 117 195 104 195 91 195 78 195 65 195 52 195 39 195 26 195 26 208 39 208 52 208 65 208 78 208 91 208 104 208 117 208 130 208 143 208 156 208 169 208 182 208 182 195 169 195 156 195"/><rect class="cls-3" x="13" y="26" width="13" height="13"/><rect class="cls-3" x="195" y="26" width="13" height="13"/><polygon class="cls-3" points="208 39 208 52 208 65 208 78 208 91 208 104 208 117 208 130 208 143 208 156 208 169 208 182 221 182 221 169 221 156 221 143 221 130 221 117 221 104 221 91 221 78 221 65 221 52 221 39 208 39"/><rect class="cls-3" x="26" y="13" width="13" height="13"/><polygon class="cls-3" points="65 13 78 13 91 13 104 13 117 13 130 13 143 13 156 13 169 13 182 13 182 0 169 0 156 0 143 0 130 0 117 0 104 0 91 0 78 0 65 0 52 0 39 0 39 13 52 13 65 13"/><rect class="cls-3" x="182" y="13" width="13" height="13"/><polygon class="cls-3" points="13 156 13 143 13 130 13 117 13 104 13 91 13 78 13 65 13 52 13 39 0 39 0 52 0 65 0 78 0 91 0 104 0 117 0 130 0 143 0 156 0 169 0 182 13 182 13 169 13 156"/><rect class="cls-3" x="13" y="182" width="13" height="13"/><rect class="cls-3" x="195" y="182" width="13" height="13"/><rect class="cls-3" x="182" y="195" width="13" height="13"/><polygon class="cls-3" points="156 208 143 208 130 208 117 208 104 208 91 208 78 208 65 208 52 208 39 208 39 221 52 221 65 221 78 221 91 221 104 221 117 221 130 221 143 221 156 221 169 221 182 221 182 208 169 208 156 208"/><rect class="cls-3" x="26" y="195" width="13" height="13"/><polygon class="cls-4" points="182 26 169 26 156 26 143 26 130 26 117 26 104 26 91 26 78 26 65 26 52 26 39 26 39 39 26 39 26 52 26 65 26 78 26 91 26 104 26 117 26 130 26 143 26 156 26 169 26 182 26 195 39 195 52 195 65 195 78 195 91 195 104 195 117 195 130 195 143 195 156 195 169 195 182 195 182 182 195 182 195 169 195 156 195 143 195 130 195 117 195 104 195 91 195 78 195 65 195 52 195 39 195 26 182 26"/><polygon class="cls-5" points="71.4 84 84.4 84 84.4 97 97.4 97 97.4 110 110.4 110 123.4 110 123.4 97 136.4 97 136.4 84 149.4 84 149.4 71 162.4 71 162.4 58 149.4 58 136.4 58 123.4 58 110.4 58 97.4 58 84.4 58 71.4 58 58.4 58 58.4 71 71.4 71 71.4 84"/><polygon class="cls-5" points="162.4 71 162.4 84 149.4 84 149.4 97 136.4 97 136.4 110 123.4 110 123.4 123 136.4 123 136.4 136 149.4 136 149.4 149 136.4 149 136.4 136 123.4 136 123.4 123 110.4 123 97.4 123 97.4 136 84.4 136 84.4 149 71.4 149 71.4 136 84.4 136 84.4 123 97.4 123 97.4 110 84.4 110 84.4 97 71.4 97 71.4 84 58.4 84 58.4 71 45.4 71 45.4 84 45.4 97 45.4 110 45.4 123 45.4 136 45.4 149 58.4 149 58.4 162 71.4 162 84.4 162 97.4 162 110.4 162 123.4 162 136.4 162 149.4 162 162.4 162 162.4 149 175.4 149 175.4 136 175.4 123 175.4 110 175.4 97 175.4 84 175.4 71 162.4 71"/><polygon class="cls-6" points="162.4 71 162.4 84 162.4 97 162.4 110 162.4 123 162.4 136 162.4 149 175.4 149 175.4 136 175.4 123 175.4 110 175.4 97 175.4 84 175.4 71 162.4 71"/><polygon class="cls-6" points="136.4 149 123.4 149 110.4 149 97.4 149 84.4 149 71.4 149 58.4 149 58.4 162 71.4 162 84.4 162 97.4 162 110.4 162 123.4 162 136.4 162 149.4 162 162.4 162 162.4 149 149.4 149 136.4 149"/><polygon class="cls-7" points="149.4 58 136.4 58 123.4 58 110.4 58 97.4 58 84.4 58 71.4 58 58.4 58 58.4 71 71.4 71 84.4 71 97.4 71 110.4 71 123.4 71 136.4 71 149.4 71 162.4 71 162.4 58 149.4 58"/><polygon class="cls-7" points="45.4 84 45.4 97 45.4 110 45.4 123 45.4 136 45.4 149 58.4 149 58.4 136 58.4 123 58.4 110 58.4 97 58.4 84 58.4 71 45.4 71 45.4 84"/></g></g></g></svg>