<svg xmlns="http://www.w3.org/2000/svg" viewBox="0 0 221 221"><defs><style>.cls-1{fill:#bfbfbf;}.cls-2{fill:#f2f2f2;}.cls-3{fill:#e5e5e5;}.cls-4{fill:#fff;}.cls-5{fill:#1685bd;}.cls-6{fill:#3babe5;}.cls-7{fill:#0c648e;}</style></defs><title>sns_Linkedin_hover</title><g id="圖層_2" data-name="圖層 2"><g id="Linkedin"><g id="sns_Linkedin_hover"><polygon class="cls-1" points="13 52 13 65 13 78 13 91 13 104 13 117 13 130 13 143 13 156 13 169 13 182 26 182 26 169 26 156 26 143 26 130 26 117 26 104 26 91 26 78 26 65 26 52 26 39 13 39 13 52"/><rect class="cls-1" x="26" y="26" width="13" height="13"/><polygon class="cls-1" points="169 13 156 13 143 13 130 13 117 13 104 13 91 13 78 13 65 13 52 13 39 13 39 26 52 26 65 26 78 26 91 26 104 26 117 26 130 26 143 26 156 26 169 26 182 26 182 13 169 13"/><polygon class="cls-2" points="195 39 195 52 195 65 195 78 195 91 195 104 195 117 195 130 195 143 195 156 195 169 195 182 208 182 208 169 208 156 208 143 208 130 208 117 208 104 208 91 208 78 208 65 208 52 208 39 195 39"/><rect class="cls-2" x="182" y="182" width="13" height="13"/><polygon class="cls-2" points="156 195 143 195 130 195 117 195 104 195 91 195 78 195 65 195 52 195 39 195 26 195 26 208 39 208 52 208 65 208 78 208 91 208 104 208 117 208 130 208 143 208 156 208 169 208 182 208 182 195 169 195 156 195"/><rect class="cls-3" x="13" y="26" width="13" height="13"/><rect class="cls-3" x="195" y="26" width="13" height="13"/><polygon class="cls-3" points="208 39 208 52 208 65 208 78 208 91 208 104 208 117 208 130 208 143 208 156 208 169 208 182 221 182 221 169 221 156 221 143 221 130 221 117 221 104 221 91 221 78 221 65 221 52 221 39 208 39"/><rect class="cls-3" x="26" y="13" width="13" height="13"/><polygon class="cls-3" points="65 13 78 13 91 13 104 13 117 13 130 13 143 13 156 13 169 13 182 13 182 0 169 0 156 0 143 0 130 0 117 0 104 0 91 0 78 0 65 0 52 0 39 0 39 13 52 13 65 13"/><rect class="cls-3" x="182" y="13" width="13" height="13"/><polygon class="cls-3" points="13 156 13 143 13 130 13 117 13 104 13 91 13 78 13 65 13 52 13 39 0 39 0 52 0 65 0 78 0 91 0 104 0 117 0 130 0 143 0 156 0 169 0 182 13 182 13 169 13 156"/><rect class="cls-3" x="13" y="182" width="13" height="13"/><rect class="cls-3" x="195" y="182" width="13" height="13"/><rect class="cls-3" x="182" y="195" width="13" height="13"/><polygon class="cls-3" points="156 208 143 208 130 208 117 208 104 208 91 208 78 208 65 208 52 208 39 208 39 221 52 221 65 221 78 221 91 221 104 221 117 221 130 221 143 221 156 221 169 221 182 221 182 208 169 208 156 208"/><rect class="cls-3" x="26" y="195" width="13" height="13"/><polygon class="cls-4" points="182 26 169 26 156 26 143 26 130 26 117 26 104 26 91 26 78 26 65 26 52 26 39 26 39 39 26 39 26 52 26 65 26 78 26 91 26 104 26 117 26 130 26 143 26 156 26 169 26 182 26 195 39 195 52 195 65 195 78 195 91 195 104 195 117 195 130 195 143 195 156 195 169 195 182 195 182 182 195 182 195 169 195 156 195 143 195 130 195 117 195 104 195 91 195 78 195 65 195 52 195 39 195 26 182 26"/><polygon class="cls-5" points="49.6 45 49.6 58 49.6 71 62.6 71 75.6 71 75.6 58 75.6 45 62.6 45 49.6 45"/><polygon class="cls-5" points="49.6 84 49.6 97 49.6 110 49.6 123 49.6 136 49.6 149 49.6 162 62.6 162 75.6 162 75.6 149 75.6 136 75.6 123 75.6 110 75.6 97 75.6 84 62.6 84 49.6 84"/><polygon class="cls-5" points="153.6 97 153.6 84 140.6 84 127.6 84 127.6 97 114.6 97 114.6 84 101.6 84 88.6 84 88.6 97 88.6 110 88.6 123 88.6 136 88.6 149 88.6 162 101.6 162 114.6 162 114.6 149 114.6 136 114.6 123 127.6 123 127.6 110 140.6 110 140.6 123 140.6 136 140.6 149 140.6 162 153.6 162 166.6 162 166.6 149 166.6 136 166.6 123 166.6 110 166.6 97 153.6 97"/><rect class="cls-6" x="49.6" y="45" width="13" height="13"/><polygon class="cls-6" points="49.6 97 49.6 110 49.6 123 49.6 136 49.6 149 49.6 162 62.6 162 62.6 149 62.6 136 62.6 123 62.6 110 62.6 97 62.6 84 49.6 84 49.6 97"/><polygon class="cls-6" points="88.6 97 88.6 110 88.6 123 88.6 136 88.6 149 88.6 162 101.6 162 101.6 149 101.6 136 101.6 123 101.6 110 101.6 97 101.6 84 88.6 84 88.6 97"/><rect class="cls-6" x="127.6" y="84" width="13" height="13"/><polygon class="cls-7" points="62.6 136 62.6 149 62.6 162 75.6 162 75.6 149 75.6 136 75.6 123 62.6 123 62.6 136"/><rect class="cls-7" x="62.6" y="58" width="13" height="13"/><polygon class="cls-7" points="101.6 136 101.6 149 101.6 162 114.6 162 114.6 149 114.6 136 114.6 123 101.6 123 101.6 136"/><rect class="cls-7" x="114.6" y="110" width="13" height="13"/><polygon class="cls-7" points="153.6 97 153.6 110 153.6 123 153.6 136 153.6 149 153.6 162 166.6 162 166.6 149 166.6 136 166.6 123 166.6 110 166.6 97 153.6 97"/></g></g></g></svg>