<?xml version="1.0" standalone="no"?>
<!DOCTYPE svg PUBLIC "-//W3C//DTD SVG 1.1//EN" "http://www.w3.org/Graphics/SVG/1.1/DTD/svg11.dtd" >
<svg xmlns="http://www.w3.org/2000/svg" xmlns:xlink="http://www.w3.org/1999/xlink" version="1.1">
<metadata></metadata>
<defs>
<font id="04b03bregular" horiz-adv-x="1766" >
<font-face units-per-em="2048" ascent="1536" descent="-512" />
<missing-glyph horiz-adv-x="1059" />
<glyph horiz-adv-x="0" />
<glyph unicode="&#xd;" horiz-adv-x="1059" />
<glyph unicode=" "  horiz-adv-x="1059" />
<glyph unicode="&#x09;" horiz-adv-x="1059" />
<glyph unicode="&#xa0;" horiz-adv-x="1059" />
<glyph unicode="!" horiz-adv-x="706" d="M0 0h353v353h-353v-353zM0 707h353v1059h-353v-1059z" />
<glyph unicode="&#x22;" horiz-adv-x="1413" d="M0 1060h353v706h-353v-706zM707 1060h353v706h-353v-706z" />
<glyph unicode="#" horiz-adv-x="2119" d="M0 353h353v-353h354v353h353v-353h353v353h353v354h-353v353h353v353h-353v353h-353v-353h-353v353h-354v-353h-353v-353h353v-353h-353v-354zM707 707v353h353v-353h-353z" />
<glyph unicode="$" d="M0 0v353h353v354h-353v706h353v353h1060v-353h-353v-353h353v-707h-353v-353h-1060zM353 1060h354v350h-354v-350zM707 356h353v351h-353v-351z" />
<glyph unicode="%" horiz-adv-x="2119" d="M0 0h353v353h-353v-353zM0 1060v706h707v-706h-707zM353 353h354v354h-354v-354zM707 707h353v353h-353v-353zM1060 0h706v707h-706v-707zM1060 1060h353v353h-353v-353zM1413 1413h353v353h-353v-353z" />
<glyph unicode="&#x26;" horiz-adv-x="2119" d="M0 0h1413v707h353v353h-1413v353h707v353h-1060v-1766zM353 353v354h707v-354h-707z" />
<glyph unicode="'" horiz-adv-x="706" d="M0 1060h353v706h-353v-706z" />
<glyph unicode="(" horiz-adv-x="1059" d="M0 353h353v1060h-353v-1060zM353 0h354v353h-354v-353zM353 1413h354v353h-354v-353z" />
<glyph unicode=")" horiz-adv-x="1059" d="M0 0h353v353h-353v-353zM0 1413h353v353h-353v-353zM353 353h354v1060h-354v-1060z" />
<glyph unicode="*" horiz-adv-x="1413" d="M0 707h353v353h-353v-353zM0 1413h353v353h-353v-353zM353 1060h354v353h-354v-353zM707 707h353v353h-353v-353zM707 1413h353v353h-353v-353z" />
<glyph unicode="+" horiz-adv-x="1413" d="M0 707h353v-354h354v354h353v353h-353v353h-354v-353h-353v-353z" />
<glyph unicode="," horiz-adv-x="1059" d="M0 0v-353h353v353h-353zM353 0h354v353h-354v-353z" />
<glyph unicode="-" horiz-adv-x="1413" d="M0 707h1060v353h-1060v-353z" />
<glyph unicode="." horiz-adv-x="706" d="M0 0h353v353h-353v-353z" />
<glyph unicode="/" horiz-adv-x="2119" d="M0 0h353v353h-353v-353zM353 353h354v354h-354v-354zM707 707h353v353h-353v-353zM1060 1060h353v353h-353v-353zM1413 1413h353v353h-353v-353z" />
<glyph unicode="0" d="M0 0h1413v1766h-1413v-1766zM353 353v1060h707v-1060h-707z" />
<glyph unicode="1" horiz-adv-x="1059" d="M0 1413h353v-1413h354v1766h-707v-353z" />
<glyph unicode="2" d="M0 0h1413v353h-1060v354h1060v1059h-1413v-353h1060v-353h-1060v-1060z" />
<glyph unicode="3" d="M0 0h1413v1766h-1413v-353h1060v-353h-1060v-353h1060v-354h-1060v-353z" />
<glyph unicode="4" d="M0 353h1060v-353h353v1766h-353v-1059h-707v1059h-353v-1413z" />
<glyph unicode="5" d="M0 0h1413v1060h-1060v353h1060v353h-1413v-1059h1060v-354h-1060v-353z" />
<glyph unicode="6" d="M0 0h1413v1060h-1060v353h707v353h-1060v-1766zM353 353v354h707v-354h-707z" />
<glyph unicode="7" d="M0 1413h1060v-353h353v706h-1413v-353zM353 0h354v707h-354v-707zM707 707h353v353h-353v-353z" />
<glyph unicode="8" d="M0 0h1413v1766h-1413v-1766zM353 353v354h707v-354h-707zM353 1060v353h707v-353h-707z" />
<glyph unicode="9" d="M0 707h1060v-354h-707v-353h1060v1766h-1413v-1059zM353 1060v353h707v-353h-707z" />
<glyph unicode=":" horiz-adv-x="706" d="M0 353h353v354h-353v-354zM0 1060h353v353h-353v-353z" />
<glyph unicode=";" horiz-adv-x="706" d="M0 0h353v707h-353v-707zM0 1060h353v353h-353v-353z" />
<glyph unicode="&#x3c;" horiz-adv-x="1413" d="M0 707h353v353h-353v-353zM353 353h354v354h-354v-354zM353 1060h354v353h-354v-353zM707 0h353v353h-353v-353zM707 1413h353v353h-353v-353z" />
<glyph unicode="=" horiz-adv-x="1413" d="M0 353h1060v354h-1060v-354zM0 1060h1060v353h-1060v-353z" />
<glyph unicode="&#x3e;" horiz-adv-x="1413" d="M0 0h353v353h-353v-353zM0 1413h353v353h-353v-353zM353 353h354v354h-354v-354zM353 1060h354v353h-354v-353zM707 707h353v353h-353v-353z" />
<glyph unicode="?" d="M0 1413h1060v-353h-707v-353h1060v1059h-1413v-353zM353 0h354v353h-354v-353z" />
<glyph unicode="@" horiz-adv-x="2119" d="M0 0v1766h1766v-1413h-353v-353h-1413zM353 353h354v707h706v353h-1060v-1060zM1060 356h353v351h-353v-351z" />
<glyph unicode="A" d="M0 0h353v707h707v-707h353v1766h-1413v-1766zM353 1060v353h707v-353h-707z" />
<glyph unicode="B" d="M0 0h1413v1060h-353v706h-1060v-1766zM353 353v354h707v-354h-707zM353 1060v353h354v-353h-354z" />
<glyph unicode="C" d="M0 0h1413v353h-1060v1060h1060v353h-1413v-1766z" />
<glyph unicode="D" d="M0 0v1766h1060v-353h353v-1060h-353v-353h-1060zM353 356h707v1054h-707v-1054z" />
<glyph unicode="E" d="M0 0h1413v353h-1060v354h1060v353h-1060v353h1060v353h-1413v-1766z" />
<glyph unicode="F" d="M0 0h353v707h1060v353h-1060v353h1060v353h-1413v-1766z" />
<glyph unicode="G" d="M0 0h1413v1060h-706v-353h353v-354h-707v1060h1060v353h-1413v-1766z" />
<glyph unicode="H" d="M0 0h353v707h707v-707h353v1766h-353v-706h-707v706h-353v-1766z" />
<glyph unicode="I" horiz-adv-x="1413" d="M0 0h1060v353h-353v1060h353v353h-1060v-353h353v-1060h-353v-353z" />
<glyph unicode="J" d="M0 0h1413v1766h-706v-353h353v-1060h-707v354h-353v-707z" />
<glyph unicode="K" d="M0 0h353v707h707v353h-707v706h-353v-1766zM1060 0h353v707h-353v-707zM1060 1060h353v706h-353v-706z" />
<glyph unicode="L" d="M0 0h1413v353h-1060v1413h-353v-1766z" />
<glyph unicode="M" horiz-adv-x="2119" d="M0 0h353v1413h354v-1413h353v1413h353v-1413h353v1766h-1766v-1766z" />
<glyph unicode="N" d="M0 0h353v1060h354v353h-354v353h-353v-1766zM707 707h353v-707h353v1766h-353v-706h-353v-353z" />
<glyph unicode="O" d="M0 0h1413v1766h-1413v-1766zM353 353v1060h707v-1060h-707z" />
<glyph unicode="P" d="M0 0h353v353h1060v1413h-1413v-1766zM353 707v706h707v-706h-707z" />
<glyph unicode="Q" d="M0 0h1413v1766h-1413v-1766zM353 353v1060h707v-706h-353v-354h-354z" />
<glyph unicode="R" d="M0 0h353v707h354v-707h706v353h-353v354h353v1059h-1413v-1766zM353 1060v353h707v-353h-707z" />
<glyph unicode="S" d="M0 0h1413v1060h-1060v353h1060v353h-1413v-1059h1060v-354h-1060v-353z" />
<glyph unicode="T" horiz-adv-x="1413" d="M0 1413h353v-1413h354v1413h353v353h-1060v-353z" />
<glyph unicode="U" d="M0 0h1413v1766h-353v-1413h-707v1413h-353v-1766z" />
<glyph unicode="V" d="M0 353h353v1413h-353v-1413zM353 0h354v353h-354v-353zM707 353h353v707h-353v-707zM1060 1060h353v706h-353v-706z" />
<glyph unicode="W" horiz-adv-x="2119" d="M0 0h1766v1766h-353v-1413h-353v1413h-353v-1413h-354v1413h-353v-1766z" />
<glyph unicode="X" d="M0 0h353v707h-353v-707zM0 1060h353v706h-353v-706zM353 707h707v353h-707v-353zM1060 0h353v707h-353v-707zM1060 1060h353v706h-353v-706z" />
<glyph unicode="Y" d="M0 0h1413v1766h-353v-706h-707v706h-353v-1059h1060v-354h-1060v-353z" />
<glyph unicode="Z" d="M0 0h1413v353h-1060v354h-353v-707zM0 1413h1060v-353h353v706h-1413v-353zM353 707h707v353h-707v-353z" />
<glyph unicode="[" horiz-adv-x="1059" d="M0 0h707v353h-354v1060h354v353h-707v-1766z" />
<glyph unicode="\" horiz-adv-x="2119" d="M0 1413v353h353v-353h-353zM353 1060v353h354v-353h-354zM707 707v353h353v-353h-353zM1060 353v354h353v-354h-353zM1413 0v353h353v-353h-353z" />
<glyph unicode="]" horiz-adv-x="1059" d="M0 0h707v1766h-707v-353h353v-1060h-353v-353z" />
<glyph unicode="^" horiz-adv-x="1413" d="M0 1060h353v353h-353v-353zM353 1413h354v353h-354v-353zM707 1060h353v353h-353v-353z" />
<glyph unicode="_" d="M0 0h1413v353h-1413v-353z" />
<glyph unicode="`" horiz-adv-x="1059" d="M0 1413h353v353h-353v-353zM353 1060h354v353h-354v-353z" />
<glyph unicode="a" d="M0 0v707h353v353h1060v-1060h-1413zM353 353h707v351h-707v-351z" />
<glyph unicode="b" d="M0 0h1413v1060h-1060v353h-353v-1413zM353 353v354h707v-354h-707z" />
<glyph unicode="c" horiz-adv-x="1413" d="M0 0h1060v353h-707v354h707v353h-1060v-1060z" />
<glyph unicode="d" d="M0 0h1413v1413h-353v-353h-1060v-1060zM353 353v354h707v-354h-707z" />
<glyph unicode="e" d="M0 353v707h1413v-353h-353v-354h353v-353h-1060v353h-353zM353 356h354v351h-354v-351z" />
<glyph unicode="f" d="M0 353h353v-353h354v353h706v354h-706v353h706v353h-1060v-706h-353v-354z" />
<glyph unicode="g" d="M0 0h707v-353h353v353h353v1060h-1413v-1060zM353 353v354h707v-354h-707z" />
<glyph unicode="h" d="M0 0h353v707h707v-707h353v1060h-1060v353h-353v-1413z" />
<glyph unicode="i" horiz-adv-x="706" d="M0 0h353v707h-353v-707zM0 1060h353v353h-353v-353z" />
<glyph unicode="j" horiz-adv-x="706" d="M0 -353h353v1060h-353v-1060zM0 1060h353v353h-353v-353z" />
<glyph unicode="k" d="M0 0h353v353h707v354h-707v706h-353v-1413zM1060 0h353v353h-353v-353zM1060 707h353v353h-353v-353z" />
<glyph unicode="l" horiz-adv-x="706" d="M0 0h353v1413h-353v-1413z" />
<glyph unicode="m" horiz-adv-x="2119" d="M0 0h353v707h354v-707h353v707h353v-707h353v1060h-1766v-1060z" />
<glyph unicode="n" d="M0 0h353v707h707v-707h353v1060h-1413v-1060z" />
<glyph unicode="o" d="M0 0h1413v1060h-1413v-1060zM353 353v354h707v-354h-707z" />
<glyph unicode="p" d="M0 -353h353v353h1060v1060h-1413v-1413zM353 353v354h707v-354h-707z" />
<glyph unicode="q" d="M0 0h1060v-353h353v1413h-1413v-1060zM353 353v354h707v-354h-707z" />
<glyph unicode="r" horiz-adv-x="1413" d="M0 0h353v707h707v353h-1060v-1060z" />
<glyph unicode="s" d="M0 0h1413v353h-706v354h706v353h-1413v-353h353v-354h-353v-353z" />
<glyph unicode="t" horiz-adv-x="1413" d="M0 707h353v-707h707v353h-353v354h353v353h-353v353h-354v-353h-353v-353z" />
<glyph unicode="u" d="M0 0h1413v1060h-353v-707h-707v707h-353v-1060z" />
<glyph unicode="v" d="M0 353h353v707h-353v-707zM353 0h707v353h-707v-353zM1060 353h353v707h-353v-707z" />
<glyph unicode="w" horiz-adv-x="2119" d="M0 0h1766v1060h-353v-707h-353v707h-353v-707h-354v707h-353v-1060z" />
<glyph unicode="x" horiz-adv-x="1413" d="M0 0h353v353h-353v-353zM0 707h353v353h-353v-353zM353 353h354v354h-354v-354zM707 0h353v353h-353v-353zM707 707h353v353h-353v-353z" />
<glyph unicode="y" d="M0 0h1060v-353h353v1413h-353v-707h-707v707h-353v-1060z" />
<glyph unicode="z" d="M0 0h1413v353h-353v354h353v353h-1413v-353h707v-354h-707v-353z" />
<glyph unicode="{" horiz-adv-x="1413" d="M0 707h353v353h-353v-353zM353 0h707v353h-353v354h-354v-707zM353 1060h354v353h353v353h-707v-706z" />
<glyph unicode="|" horiz-adv-x="706" d="M0 0h353v1766h-353v-1766z" />
<glyph unicode="}" horiz-adv-x="1413" d="M0 0h707v707h-354v-354h-353v-353zM0 1413h353v-353h354v706h-707v-353zM707 707h353v353h-353v-353z" />
<glyph unicode="~" d="M0 1060h353v353h-353v-353zM353 1413h354v353h-354v-353zM707 1060h353v353h-353v-353zM1060 1413h353v353h-353v-353z" />
<glyph unicode="&#xad;" horiz-adv-x="1413" d="M0 707h1060v353h-1060v-353z" />
<glyph unicode="&#x2000;" horiz-adv-x="883" />
<glyph unicode="&#x2001;" />
<glyph unicode="&#x2002;" horiz-adv-x="883" />
<glyph unicode="&#x2003;" />
<glyph unicode="&#x2004;" horiz-adv-x="588" />
<glyph unicode="&#x2005;" horiz-adv-x="441" />
<glyph unicode="&#x2006;" horiz-adv-x="294" />
<glyph unicode="&#x2007;" horiz-adv-x="294" />
<glyph unicode="&#x2008;" horiz-adv-x="220" />
<glyph unicode="&#x2009;" horiz-adv-x="353" />
<glyph unicode="&#x200a;" horiz-adv-x="98" />
<glyph unicode="&#x2010;" horiz-adv-x="1413" d="M0 707h1060v353h-1060v-353z" />
<glyph unicode="&#x2011;" horiz-adv-x="1413" d="M0 707h1060v353h-1060v-353z" />
<glyph unicode="&#x2012;" horiz-adv-x="1413" d="M0 707h1060v353h-1060v-353z" />
<glyph unicode="&#x2013;" horiz-adv-x="1377" d="M0 707h1024v353h-1024v-353z" />
<glyph unicode="&#x2014;" horiz-adv-x="2401" d="M0 707h2048v353h-2048v-353z" />
<glyph unicode="&#x202f;" horiz-adv-x="353" />
<glyph unicode="&#x205f;" horiz-adv-x="441" />
<glyph unicode="&#x25fc;" horiz-adv-x="1059" d="M0 0v1060h1060v-1060h-1060z" />
</font>
</defs>
</svg>
